<svg height="512pt" viewBox="-31 0 512 512" width="512pt" xmlns="http://www.w3.org/2000/svg"><path d="m441 256-154.5 256h-121.5v-1.800781l-156-254.199219 155.699219-256h122.101562zm0 0" fill="#a8ebfa"/><path d="m441 256-154.5 256h-61.5v-512h61.800781zm0 0" fill="#76e2f8"/><path d="m440.929688 256h-79.492188c-5.683594 0-5.886719 3.207031-8.4375 8.289062-64.863281 129.742188-67.488281 203.355469-66.492188 234.382813.164063 4.992187.382813 8.773437-.070312 13.328125h148.5625c8.289062 0 15-6.710938 15-15v-226zm0 0" fill="#3e5959"/><path d="m96 264.289062c-2.550781-5.082031-4.316406-8.289062-10-8.289062h-76.851562l-9.148438 15v226c0 8.289062 6.710938 15 15 15h149.886719l-.003907-1.902344c-.351562-2.683594-.117187-6.476562.042969-11.515625.996094-30.996093-4.078125-104.578125-68.925781-234.292969zm0 0" fill="#4a696f"/><path d="m285 181c-24.902344 0-45-20.097656-45-45 0-8.402344-6.597656-15-15-15s-15 6.597656-15 15c0 24.902344-20.097656 45-45 45-8.402344 0-15 6.597656-15 15s6.597656 15 15 15c24.902344 0 45 20.097656 45 45 0 8.402344 6.597656 15 15 15s15-6.597656 15-15c0-24.902344 20.097656-45 45-45 8.402344 0 15-6.597656 15-15s-6.597656-15-15-15zm0 0" fill="#ffd400"/><path d="m300 196c0 8.402344-6.597656 15-15 15-24.902344 0-45 20.097656-45 45 0 8.402344-6.597656 15-15 15v-150c8.402344 0 15 6.597656 15 15 0 24.902344 20.097656 45 45 45 8.402344 0 15 6.597656 15 15zm0 0" fill="#fdbf00"/><path d="m360 361c-24.902344 0-45-20.097656-45-45 0-8.402344-6.597656-15-15-15s-15 6.597656-15 15c0 24.902344-20.097656 45-45 45-8.402344 0-15 6.597656-15 15s6.597656 15 15 15c24.902344 0 45 20.097656 45 45 0 8.402344 6.597656 15 15 15s15-6.597656 15-15c0-24.902344 20.097656-45 45-45 8.402344 0 15-6.597656 15-15s-6.597656-15-15-15zm0 0" fill="#ffd400"/><path d="m375 376c0 8.402344-6.597656 15-15 15-24.902344 0-45 20.097656-45 45 0 8.402344-6.597656 15-15 15v-150c8.402344 0 15 6.597656 15 15 0 24.902344 20.097656 45 45 45 8.402344 0 15 6.597656 15 15zm0 0" fill="#fdbf00"/><path d="m164.699219 0c-1.660157 63.179688-15.839844 194.75-65.378907 271h-99.320312v-256c0-8.289062 6.710938-15 15-15zm0 0" fill="#4a696f"/><path d="m450 15v256h-100.308594c-49.972656-76.960938-61.492187-210.171875-62.980468-271h148.289062c8.289062 0 15 6.710938 15 15zm0 0" fill="#3e5959"/></svg>