<svg height="512pt" viewBox="-61 0 512 512" width="512pt" xmlns="http://www.w3.org/2000/svg"><path d="m390 120v347c0 24.898438-20.097656 45-45 45h-300c-24.902344 0-45-20.101562-45-45v-347l36.300781-30h322.5zm0 0" fill="#3e5959"/><path d="m390 120v347c0 24.898438-20.097656 45-45 45h-150v-422h163.800781zm0 0" fill="#384949"/><path d="m195 211c-57.898438 0-105 47.101562-105 105s47.101562 105 105 105 105-47.101562 105-105-47.101562-105-105-105zm0 0" fill="#deecf1"/><path d="m300 316c0 57.898438-47.101562 105-105 105v-210c57.898438 0 105 47.101562 105 105zm0 0" fill="#c6e2e7"/><path d="m390 45v75h-390v-75c0-24.902344 20.097656-45 45-45h300c24.902344 0 45 20.097656 45 45zm0 0" fill="#a8ebfa"/><path d="m390 45v75h-195v-120h150c24.902344 0 45 20.097656 45 45zm0 0" fill="#76e2f8"/><path d="m239.699219 256.300781v119.398438c-12.597657 9.601562-27.898438 15.300781-44.699219 15.300781-41.398438 0-75-33.601562-75-75s33.601562-75 75-75c16.800781 0 32.101562 5.699219 44.699219 15.300781zm0 0" fill="#a8ebfa"/><path d="m210 75c0 8.398438-6.597656 15-15 15s-15-6.601562-15-15c0-8.402344 6.597656-15 15-15s15 6.597656 15 15zm0 0" fill="#3e5959"/><path d="m269.972656 75c0 8.285156-6.71875 15-15 15-8.285156 0-15-6.714844-15-15s6.714844-15 15-15c8.28125 0 15 6.714844 15 15zm0 0" fill="#384949"/><path d="m329.972656 75c0 8.285156-6.71875 15-15 15-8.285156 0-15-6.714844-15-15s6.714844-15 15-15c8.28125 0 15 6.714844 15 15zm0 0" fill="#384949"/><path d="m135 90h-60c-8.289062 0-15-6.710938-15-15s6.710938-15 15-15h60c8.289062 0 15 6.710938 15 15s-6.710938 15-15 15zm0 0" fill="#3e5959"/><path d="m239.699219 256.300781v119.398438c-12.597657 9.601562-27.898438 15.300781-44.699219 15.300781v-150c16.800781 0 32.101562 5.699219 44.699219 15.300781zm0 0" fill="#76e2f8"/><path d="m270 316c0-24.511719-11.992188-46.113281-30.230469-59.808594-18.378906 13.9375-29.769531 35.9375-29.769531 59.808594s11.390625 45.871094 29.769531 59.808594c18.238281-13.695313 30.230469-35.296875 30.230469-59.808594zm0 0" fill="#00c0f1"/><path d="m210 75c0 8.398438-6.597656 15-15 15v-30c8.402344 0 15 6.597656 15 15zm0 0" fill="#384949"/></svg>