<svg id="Capa_1" enable-background="new 0 0 510 510" height="512" viewBox="0 0 510 510" width="512" xmlns="http://www.w3.org/2000/svg" xmlns:xlink="http://www.w3.org/1999/xlink"><linearGradient id="SVGID_1_" gradientUnits="userSpaceOnUse" x1="345.858" x2="442.035" y1="74.142" y2="170.319"><stop offset="0" stop-color="#ffdfcf"/><stop offset="1" stop-color="#ffa78f"/></linearGradient><linearGradient id="SVGID_00000108292901484096127040000009338293566749843075_" gradientUnits="userSpaceOnUse" x1="416.504" x2="385.004" y1="58.89" y2="105.39"><stop offset="0" stop-color="#f89580" stop-opacity="0"/><stop offset=".2574" stop-color="#f2917b" stop-opacity=".258"/><stop offset=".6055" stop-color="#e1856f" stop-opacity=".607"/><stop offset=".9972" stop-color="#c5715a"/></linearGradient><linearGradient id="SVGID_00000003067088968932926670000010468878577622543254_" gradientUnits="userSpaceOnUse" x1="301.364" x2="351.967" y1="124.636" y2="175.238"><stop offset="0" stop-color="#f9f5f3"/><stop offset="1" stop-color="#efe2dd"/></linearGradient><linearGradient id="lg1"><stop offset="0" stop-color="#9e9797" stop-opacity="0"/><stop offset=".3104" stop-color="#968f8f" stop-opacity=".31"/><stop offset=".7849" stop-color="#827a7a" stop-opacity=".785"/><stop offset="1" stop-color="#766e6e"/></linearGradient><linearGradient id="SVGID_00000173132483771808819320000011113730763297582257_" gradientUnits="userSpaceOnUse" x1="356.864" x2="419.877" xlink:href="#lg1" y1="180.136" y2="243.149"/><linearGradient id="SVGID_00000152981589055329008940000008369844834479196323_" gradientUnits="userSpaceOnUse" x1="324.094" x2="276.594" xlink:href="#lg1" y1="175.585" y2="228.085"/><linearGradient id="lg2"><stop offset="0" stop-color="#ffa1ae"/><stop offset="1" stop-color="#ff4565"/></linearGradient><linearGradient id="SVGID_00000015340189418632370310000003434889714773775267_" gradientUnits="userSpaceOnUse" x1="374.549" x2="384.549" xlink:href="#lg2" y1="201.14" y2="247.64"/><linearGradient id="lg3"><stop offset="0" stop-color="#fd4755" stop-opacity="0"/><stop offset=".2586" stop-color="#f74453" stop-opacity=".259"/><stop offset=".6211" stop-color="#e53b4c" stop-opacity=".621"/><stop offset="1" stop-color="#ca2e43"/></linearGradient><linearGradient id="SVGID_00000051375968529568584760000017269087249686843546_" gradientUnits="userSpaceOnUse" x1="378.458" x2="369.958" xlink:href="#lg3" y1="225.096" y2="250.096"/><linearGradient id="lg4"><stop offset="0" stop-color="#deecf1"/><stop offset="1" stop-color="#d9b1ee"/></linearGradient><linearGradient id="SVGID_00000125570839544508766550000010675468927086302086_" gradientUnits="userSpaceOnUse" x1="104.5" x2="152.063" xlink:href="#lg4" y1="194.415" y2="194.415"/><linearGradient id="lg5"><stop offset="0" stop-color="#8379c1" stop-opacity="0"/><stop offset=".2831" stop-color="#8374be" stop-opacity=".283"/><stop offset=".5864" stop-color="#8268b5" stop-opacity=".586"/><stop offset=".898" stop-color="#8152a6" stop-opacity=".898"/><stop offset="1" stop-color="#814aa0"/></linearGradient><linearGradient id="SVGID_00000182494662686164942820000009527369379291343292_" gradientUnits="userSpaceOnUse" x1="104.5" x2="152.063" xlink:href="#lg5" y1="194.415" y2="194.415"/><linearGradient id="SVGID_00000049916344566669068560000016228786882629077677_" gradientUnits="userSpaceOnUse" x1="27.118" x2="122.118" xlink:href="#lg4" y1="204.917" y2="339.917"/><linearGradient id="SVGID_00000073709768008340597460000011525429242982227589_" gradientUnits="userSpaceOnUse" x1="67.5" x2="108.5" xlink:href="#lg5" y1="284.305" y2="284.305"/><linearGradient id="SVGID_00000068641106916167357660000009856695647296185738_" gradientUnits="userSpaceOnUse" x1="265.571" x2="318.802" xlink:href="#lg2" y1="208.049" y2="510.851"/><linearGradient id="SVGID_00000181773413297480449210000004600987278056270233_" gradientUnits="userSpaceOnUse" x1="296.359" x2="258.457" xlink:href="#lg3" y1="323.238" y2="365.547"/><linearGradient id="SVGID_00000114069787589478482380000003251649880337863331_" gradientUnits="userSpaceOnUse" x1="184.571" x2="144.571" xlink:href="#lg3" y1="195.876" y2="156.876"/><linearGradient id="SVGID_00000160888202683864307070000018292207834458624671_" gradientUnits="userSpaceOnUse" x1="197.01" x2="150.51" xlink:href="#lg3" y1="245.624" y2="207.124"/><linearGradient id="SVGID_00000134249243307453754170000004820631146367759519_" gradientUnits="userSpaceOnUse" x1="360.941" x2="360.941" xlink:href="#lg3" y1="384.996" y2="443.696"/><linearGradient id="SVGID_00000171686957063540634850000011123911028628826520_" gradientUnits="userSpaceOnUse" x1="403.251" x2="418.584" xlink:href="#lg3" y1="296.824" y2="460.824"/><linearGradient id="lg6"><stop offset="0" stop-color="#deecf1"/><stop offset="1" stop-color="#8ebac5"/></linearGradient><linearGradient id="SVGID_00000093156800270028283490000013503692649998986908_" gradientUnits="userSpaceOnUse" x1="297.152" x2="241.021" xlink:href="#lg6" y1="392.461" y2="492.905"/><linearGradient id="lg7"><stop offset="0" stop-color="#678d98" stop-opacity="0"/><stop offset=".2265" stop-color="#638892" stop-opacity=".227"/><stop offset=".5216" stop-color="#597b82" stop-opacity=".522"/><stop offset=".8533" stop-color="#476567" stop-opacity=".853"/><stop offset="1" stop-color="#3e5959"/></linearGradient><linearGradient id="SVGID_00000104692807793710235080000006752544063684305045_" gradientUnits="userSpaceOnUse" x1="322.712" x2="276.379" xlink:href="#lg7" y1="433.249" y2="401.583"/><linearGradient id="SVGID_00000163042323872281435340000018261385490492136076_" gradientUnits="userSpaceOnUse" x1="290.351" x2="426.481" xlink:href="#lg3" y1="241.585" y2="331.902"/><linearGradient id="SVGID_00000050620625077639892500000001063297634856881330_" gradientUnits="userSpaceOnUse" x1="408.326" x2="387.326" xlink:href="#lg3" y1="333.971" y2="295.971"/><linearGradient id="SVGID_00000134971341819586631280000011280201591651682705_" gradientUnits="userSpaceOnUse" x1="376.706" x2="363.206" xlink:href="#lg3" y1="298.619" y2="272.619"/><linearGradient id="SVGID_00000035531365976386123620000011999086169776381333_" gradientUnits="userSpaceOnUse" x1="49.885" x2="144.885" xlink:href="#lg4" y1="188.896" y2="323.896"/><linearGradient id="SVGID_00000055704368371282402560000015843125266650557351_" gradientUnits="userSpaceOnUse" x1="39.237" x2="134.237" xlink:href="#lg4" y1="196.389" y2="331.389"/><linearGradient id="lg8"><stop offset="0" stop-color="#deecf1" stop-opacity="0"/><stop offset="1" stop-color="#d9b1ee"/></linearGradient><linearGradient id="SVGID_00000049934303797276285550000012534778152726147973_" gradientUnits="userSpaceOnUse" x1="135" x2="75.24" xlink:href="#lg8" y1="224.415" y2="224.415"/><linearGradient id="SVGID_00000025435888845023215820000009474942658930054560_" gradientUnits="userSpaceOnUse" x1="14.853" x2="109.853" xlink:href="#lg4" y1="213.548" y2="348.548"/><linearGradient id="SVGID_00000025402521492346614870000000993760469367307937_" gradientUnits="userSpaceOnUse" x1="89.838" x2="173.931" xlink:href="#lg4" y1="158.144" y2="277.644"/><linearGradient id="SVGID_00000017486503543044901930000009337276382941295551_" gradientUnits="userSpaceOnUse" x1="60.209" x2="155.209" xlink:href="#lg4" y1="181.631" y2="316.631"/><linearGradient id="SVGID_00000098193034810364553160000000422427185460896401_" gradientUnits="userSpaceOnUse" x1="167.5" x2="128" xlink:href="#lg5" y1="254.415" y2="254.415"/><linearGradient id="SVGID_00000165917013020510092460000006259212876111558304_" gradientUnits="userSpaceOnUse" x1="202.5" x2="153.998" xlink:href="#lg5" y1="224.415" y2="224.415"/><linearGradient id="SVGID_00000018921270420482017730000005822801759122643595_" gradientUnits="userSpaceOnUse" x1="233" x2="192.5" xlink:href="#lg5" y1="254.415" y2="254.415"/><linearGradient id="SVGID_00000145045945587506739720000001898962177443507597_" gradientUnits="userSpaceOnUse" x1="178" x2="142.309" xlink:href="#lg8" y1="164.415" y2="164.415"/><linearGradient id="SVGID_00000102532897507379029520000008409036614833773709_" gradientUnits="userSpaceOnUse" x1="247.5" x2="202.5" xlink:href="#lg5" y1="164.415" y2="164.415"/><linearGradient id="SVGID_00000004510141737835398820000016493437485216850574_" gradientUnits="userSpaceOnUse" x1="300.667" x2="242.325" xlink:href="#lg8" y1="477.415" y2="477.415"/><linearGradient id="SVGID_00000019639368727960934990000006474707565118557609_" gradientUnits="userSpaceOnUse" x1="137.454" x2="218.121" xlink:href="#lg4" y1="425.313" y2="475.979"/><linearGradient id="SVGID_00000094590104332095676270000011011923513914163123_" gradientUnits="userSpaceOnUse" x1="247.334" x2="197.928" xlink:href="#lg8" y1="447.415" y2="447.415"/><linearGradient id="SVGID_00000118360396696015427760000009763134212311044227_" gradientUnits="userSpaceOnUse" x1="134.285" x2="214.952" xlink:href="#lg4" y1="430.358" y2="481.024"/><linearGradient id="SVGID_00000030444415345844740170000013410131570251448199_" gradientUnits="userSpaceOnUse" x1="318" x2="282.309" xlink:href="#lg5" y1="447.415" y2="447.415"/><linearGradient id="SVGID_00000101796388782005149870000016627693362575607182_" gradientUnits="userSpaceOnUse" x1="346.667" x2="280.979" xlink:href="#lg7" y1="497.457" y2="497.457"/><linearGradient id="SVGID_00000182502247881057090780000010493342503133675165_" gradientUnits="userSpaceOnUse" x1="375.404" x2="375.404" xlink:href="#lg6" y1="258" y2="276.028"/><linearGradient id="lg9"><stop offset="0" stop-color="#fff5c6"/><stop offset="1" stop-color="#fee45a"/></linearGradient><linearGradient id="SVGID_00000051381543665890306580000011970431991609002629_" gradientUnits="userSpaceOnUse" x1="344.422" x2="357.011" xlink:href="#lg9" y1="257.434" y2="270.023"/><linearGradient id="lg10"><stop offset="0" stop-color="#e8b800" stop-opacity="0"/><stop offset=".9994" stop-color="#e8b800" stop-opacity=".999"/><stop offset="1" stop-color="#e8b800"/></linearGradient><linearGradient id="SVGID_00000140702734954800104520000017118927529258262417_" gradientUnits="userSpaceOnUse" x1="352.846" x2="352.846" xlink:href="#lg10" y1="266.056" y2="284.471"/><linearGradient id="SVGID_00000081648632148844244130000006101294058515837059_" gradientTransform="matrix(.707 -.707 .707 .707 1781.646 -1354.55)" gradientUnits="userSpaceOnUse" x1="-2156.116" x2="-2156.116" xlink:href="#lg10" y1="135.686" y2="155.069"/><linearGradient id="SVGID_00000018949396041823378140000007124966244687313028_" gradientUnits="userSpaceOnUse" x1="378.273" x2="378.273" xlink:href="#lg6" y1="296" y2="314.028"/><linearGradient id="SVGID_00000043454957284656377990000016793891509530524827_" gradientUnits="userSpaceOnUse" x1="350.422" x2="363.011" xlink:href="#lg9" y1="295.434" y2="308.023"/><linearGradient id="SVGID_00000026129988917860101070000001706079557970774939_" gradientUnits="userSpaceOnUse" x1="358.846" x2="358.846" xlink:href="#lg10" y1="304.056" y2="322.471"/><linearGradient id="SVGID_00000088822503303234397570000007532951186267316907_" gradientTransform="matrix(.707 -.707 .707 .707 1781.646 -1354.55)" gradientUnits="userSpaceOnUse" x1="-2178.743" x2="-2178.743" xlink:href="#lg10" y1="166.799" y2="186.182"/><g><path d="m486.059 0h-80.767c-6.35 0-12.439 2.522-16.929 7.012l-166.947 166.947 105.492 105.492 176.079-176.079c4.49-4.49 7.012-10.579 7.012-16.929v-62.502c.001-13.222-10.718-23.941-23.94-23.941z" fill="url(#SVGID_1_)"/><path d="m486.059 0h-80.767c-6.35 0-12.439 2.522-16.929 7.012l-166.947 166.947 105.492 105.492 176.079-176.079c4.49-4.49 7.012-10.579 7.012-16.929v-62.502c.001-13.222-10.718-23.941-23.94-23.941z" fill="url(#SVGID_00000108292901484096127040000009338293566749843075_)"/><path d="m215.509 168.052 116.817 116.817 116.723-116.723c6.93-6.93 6.93-18.167 0-25.097l-91.72-91.72c-6.93-6.93-18.167-6.93-25.097 0z" fill="url(#SVGID_00000003067088968932926670000010468878577622543254_)"/><path d="m215.509 168.052 116.817 116.817 116.723-116.723c6.93-6.93 6.93-18.167 0-25.097l-91.72-91.72c-6.93-6.93-18.167-6.93-25.097 0z" fill="url(#SVGID_00000173132483771808819320000011113730763297582257_)"/><path d="m419.35 197.85-87.02 87.02-116.82-116.82 87.02-87.02z" fill="url(#SVGID_00000152981589055329008940000008369844834479196323_)"/><path d="m340.244 255.726v-20.98c0-21.767 17.645-39.412 39.412-39.412h30.946c9.636 0 14.462 11.651 7.648 18.465l-48.202 48.201z" fill="url(#SVGID_00000015340189418632370310000003434889714773775267_)"/><path d="m340.244 255.726v-20.98c0-21.767 17.645-39.412 39.412-39.412h30.946c9.636 0 14.462 11.651 7.648 18.465l-48.202 48.201z" fill="url(#SVGID_00000051375968529568584760000017269087249686843546_)"/><path d="m106.039 194.415c0 4.142 3.358 7.5 7.5 7.5h56.961c4.142 0 7.5-3.358 7.5-7.5s-3.358-7.5-7.5-7.5h-56.961c-4.142 0-7.5 3.358-7.5 7.5z" fill="url(#SVGID_00000125570839544508766550000010675468927086302086_)"/><path d="m106.039 194.415c0 4.142 3.358 7.5 7.5 7.5h56.961c4.142 0 7.5-3.358 7.5-7.5s-3.358-7.5-7.5-7.5h-56.961c-4.142 0-7.5 3.358-7.5 7.5z" fill="url(#SVGID_00000182494662686164942820000009527369379291343292_)"/><path d="m135.086 276.805h-104.206c-4.142 0-7.5 3.358-7.5 7.5s3.358 7.5 7.5 7.5h104.206c4.142 0 7.5-3.358 7.5-7.5s-3.358-7.5-7.5-7.5z" fill="url(#SVGID_00000049916344566669068560000016228786882629077677_)"/><path d="m135.086 276.805h-104.206c-4.142 0-7.5 3.358-7.5 7.5s3.358 7.5 7.5 7.5h104.206c4.142 0 7.5-3.358 7.5-7.5s-3.358-7.5-7.5-7.5z" fill="url(#SVGID_00000073709768008340597460000011525429242982227589_)"/><g><path d="m428.792 350.963c-11.307.059-21.656-4.258-29.418-11.4-7.697-7.095-12.815-16.99-13.718-28.169l-2.564-52.348c-.532-10.861-8.998-19.689-19.835-20.588-25.485-2.114-54.927-16.445-79.555-41.073-15.669-15.669-27.171-33.278-34.003-50.58-2.45-6.203-8.857-9.9-15.474-9.068-18.162 2.284-35.004 9.034-49.334 19.179h-35.891c-4.142 0-7.5 3.358-7.5 7.5s3.358 7.5 7.5 7.5h18.792c-11.476 12.419-20.137 27.573-24.892 44.541l-.128.459h-60.272c-4.142 0-7.5 3.358-7.5 7.5s3.358 7.5 7.5 7.5h56.074l-6.696 23.927 211.604 211.617h151.406v-50.172c0-36.542-29.555-66.515-66.096-66.325z" fill="url(#SVGID_00000068641106916167357660000009856695647296185738_)"/><path d="m343.483 467.459h136.135l-310.545-310.544h-20.073c-4.142 0-7.5 3.358-7.5 7.5s3.358 7.5 7.5 7.5h18.792c-11.476 12.419-20.137 27.573-24.892 44.541l-.128.459h-60.272c-4.142 0-7.5 3.358-7.5 7.5s3.358 7.5 7.5 7.5h56.074l-6.696 23.927z" fill="url(#SVGID_00000181773413297480449210000004600987278056270233_)"/><path d="m428.792 350.963c-11.307.059-21.656-4.258-29.418-11.4-7.697-7.095-12.815-16.99-13.718-28.169l-2.564-52.348c-.532-10.861-8.998-19.689-19.835-20.588-25.485-2.114-54.927-16.445-79.555-41.073-8.077-8.077-15.036-16.67-20.83-25.47h-95.081c-11.476 12.419-20.137 27.573-24.892 44.541l-.128.459h-60.271c-4.142 0-7.5 3.358-7.5 7.5s3.358 7.5 7.5 7.5h56.074l-6.696 23.927 211.604 211.617h151.406v-50.172c0-36.541-29.555-66.514-66.096-66.324z" fill="url(#SVGID_00000114069787589478482380000003251649880337863331_)"/><path d="m131.879 255.842 159.121 159.131v-183.058h-152.426z" fill="url(#SVGID_00000160888202683864307070000018292207834458624671_)"/><path d="m343.483 467.459h151.406v-50.172c0-36.531-29.538-66.497-66.065-66.324h-201.83z" fill="url(#SVGID_00000134249243307453754170000004820631146367759519_)"/><path d="m428.792 350.963c-3.982.021-7.842-.512-11.515-1.509-46.094 15.585-79.277 59.19-79.277 110.546 0 .669.014 1.335.025 2.001l5.457 5.458h151.406v-50.172c0-36.541-29.555-66.514-66.096-66.324z" fill="url(#SVGID_00000171686957063540634850000011123911028628826520_)"/><path d="m468.382 438.008h-104.473c-11.351 0-22.238-4.509-30.265-12.536l-176.243-176.243c-10.643-10.643-27.899-10.643-38.542 0l-12.363 12.363c-10.643 10.643-10.643 27.899 0 38.542l139.781 139.781h-41.207c-4.142 0-7.5 3.358-7.5 7.5s3.358 7.5 7.5 7.5h56.206l15 15h-22.736c-4.142 0-7.5 3.358-7.5 7.5s3.358 7.5 7.5 7.5h38.76c20.238 16.157 45.461 25.085 71.61 25.085h114.29c17.169 0 31.087-13.918 31.087-31.087 0-22.591-18.314-40.905-40.905-40.905z" fill="url(#SVGID_00000093156800270028283490000013503692649998986908_)"/><path d="m276.275 469.915h-22.736c-4.142 0-7.5 3.358-7.5 7.5s3.358 7.5 7.5 7.5h38.76c20.239 16.157 45.462 25.085 71.611 25.085h114.29c17.169 0 31.087-13.918 31.087-31.087 0-8.968-2.894-17.256-7.788-23.998h-240.224z" fill="url(#SVGID_00000104692807793710235080000006752544063684305045_)"/><path d="m399.375 339.562c-7.697-7.095-12.815-16.99-13.718-28.169l-2.564-52.348c-.531-10.837-8.96-19.694-19.773-20.583-11.457-.942-23.715-4.374-35.977-10.082v61.184c0 30.639 23.721 56.049 54.288 58.152l40.79 2.807c-8.799-1.259-16.769-5.184-23.046-10.961z" fill="url(#SVGID_00000163042323872281435340000018261385490492136076_)"/><path d="m347.777 314.927 147.111 147.111v-44.75c0-36.542-29.555-66.515-66.096-66.325-11.307.059-21.656-4.258-29.418-11.4-7.697-7.095-12.815-16.99-13.718-28.169l-.361-7.394h-37.518z" fill="url(#SVGID_00000050620625077639892500000001063297634856881330_)"/><path d="m385.657 311.394-2.223-45.394h-41.656v10.927l46.703 46.703c-1.501-3.833-2.477-7.938-2.824-12.236z" fill="url(#SVGID_00000134971341819586631280000011280201591651682705_)"/></g><g><path d="m28.559 171.913h8.204c3.581 0 6.663-2.532 7.357-6.045.916-4.635-2.632-8.952-7.357-8.952h-8.204c-1.989 0-3.896.79-5.302 2.196-4.724 4.724-1.379 12.801 5.302 12.801z" fill="url(#SVGID_00000035531365976386123620000011999086169776381333_)"/><path d="m65.07 246.915c-4.142 0-7.5 3.358-7.5 7.5s3.358 7.5 7.5 7.5h30c4.142 0 7.5-3.358 7.5-7.5s-3.358-7.5-7.5-7.5z" fill="url(#SVGID_00000055704368371282402560000015843125266650557351_)"/><path d="m194.206 224.415c0-4.142-3.358-7.5-7.5-7.5h-104.206c-4.142 0-7.5 3.358-7.5 7.5s3.358 7.5 7.5 7.5h104.206c4.142 0 7.5-3.358 7.5-7.5z" fill="url(#SVGID_00000049934303797276285550000012534778152726147973_)"/><path d="m45 224.415c0-4.142-3.358-7.5-7.5-7.5h-30c-4.142 0-7.5 3.358-7.5 7.5s3.358 7.5 7.5 7.5h30c4.142 0 7.5-3.358 7.5-7.5z" fill="url(#SVGID_00000025435888845023215820000009474942658930054560_)"/><path d="m65.07 171.915h58.364c4.142 0 7.5-3.358 7.5-7.5s-3.358-7.5-7.5-7.5h-58.364c-4.142 0-7.5 3.358-7.5 7.5s3.358 7.5 7.5 7.5z" fill="url(#SVGID_00000025402521492346614870000000993760469367307937_)"/><path d="m61.371 201.915h15.668c4.142 0 7.5-3.358 7.5-7.5s-3.358-7.5-7.5-7.5h-15.668c-4.142 0-7.5 3.358-7.5 7.5s3.358 7.5 7.5 7.5z" fill="url(#SVGID_00000017486503543044901930000009337276382941295551_)"/><path d="m169.711 246.915h-29.69c-4.142 0-7.5 3.358-7.5 7.5s3.358 7.5 7.5 7.5h29.69c4.142 0 7.5-3.358 7.5-7.5s-3.358-7.5-7.5-7.5z" fill="url(#SVGID_00000098193034810364553160000000422427185460896401_)"/><path d="m204.419 216.915h-30c-4.142 0-7.5 3.358-7.5 7.5s3.358 7.5 7.5 7.5h30c4.142 0 7.5-3.358 7.5-7.5s-3.358-7.5-7.5-7.5z" fill="url(#SVGID_00000165917013020510092460000006259212876111558304_)"/><path d="m233.829 246.915h-29.69c-4.142 0-7.5 3.358-7.5 7.5s3.358 7.5 7.5 7.5h29.69c4.142 0 7.5-3.358 7.5-7.5s-3.358-7.5-7.5-7.5z" fill="url(#SVGID_00000018921270420482017730000005822801759122643595_)"/><path d="m149 171.915h40.951c4.142 0 7.5-3.358 7.5-7.5s-3.358-7.5-7.5-7.5h-40.951c-4.142 0-7.5 3.358-7.5 7.5s3.358 7.5 7.5 7.5z" fill="url(#SVGID_00000145045945587506739720000001898962177443507597_)"/><path d="m249.993 156.915h-30c-4.142 0-7.5 3.358-7.5 7.5s3.358 7.5 7.5 7.5h30c4.142 0 7.5-3.358 7.5-7.5s-3.358-7.5-7.5-7.5z" fill="url(#SVGID_00000102532897507379029520000008409036614833773709_)"/></g><g><path d="m246.039 477.415c0 4.142 3.358 7.5 7.5 7.5h56.961c4.142 0 7.5-3.358 7.5-7.5s-3.358-7.5-7.5-7.5h-56.961c-4.142 0-7.5 3.358-7.5 7.5z" fill="url(#SVGID_00000004510141737835398820000016493437485216850574_)"/><path d="m168.559 454.913h8.204c3.581 0 6.663-2.532 7.357-6.045.916-4.635-2.632-8.952-7.357-8.952h-8.204c-1.989 0-3.896.79-5.302 2.196-4.724 4.724-1.379 12.801 5.302 12.801z" fill="url(#SVGID_00000019639368727960934990000006474707565118557609_)"/><path d="m205.07 454.915h58.364c4.142 0 7.5-3.358 7.5-7.5s-3.358-7.5-7.5-7.5h-58.364c-4.142 0-7.5 3.358-7.5 7.5s3.358 7.5 7.5 7.5z" fill="url(#SVGID_00000094590104332095676270000011011923513914163123_)"/><path d="m201.371 484.915h15.668c4.142 0 7.5-3.358 7.5-7.5s-3.358-7.5-7.5-7.5h-15.668c-4.142 0-7.5 3.358-7.5 7.5s3.358 7.5 7.5 7.5z" fill="url(#SVGID_00000118360396696015427760000009763134212311044227_)"/><path d="m289 454.915h40.951c4.142 0 7.5-3.358 7.5-7.5s-3.358-7.5-7.5-7.5h-40.951c-4.142 0-7.5 3.358-7.5 7.5s3.358 7.5 7.5 7.5z" fill="url(#SVGID_00000030444415345844740170000013410131570251448199_)"/></g><path d="m292.299 484.915c20.239 16.157 45.462 25.085 71.611 25.085h114.29c15.115 0 27.706-10.789 30.503-25.085z" fill="url(#SVGID_00000101796388782005149870000016627693362575607182_)"/><g><path d="m390.404 273.358c4.142 0 7.5-3.358 7.5-7.5s-3.358-7.5-7.5-7.5h-30c-4.142 0-7.5 3.358-7.5 7.5s3.358 7.5 7.5 7.5z" fill="url(#SVGID_00000182502247881057090780000010493342503133675165_)"/><g><circle cx="352.846" cy="265.858" fill="url(#SVGID_00000051381543665890306580000011970431991609002629_)" r="15.654"/><path d="m337.193 265.858c0 8.645 7.008 15.654 15.654 15.654 8.645 0 15.654-7.008 15.654-15.654 0-1.872-.33-3.667-.933-5.332h-29.442c-.604 1.665-.933 3.46-.933 5.332z" fill="url(#SVGID_00000140702734954800104520000017118927529258262417_)"/><path d="m341.777 276.927c6.113 6.113 16.025 6.113 22.138 0s6.113-16.025 0-22.138c-1.324-1.324-2.826-2.36-4.43-3.11l-20.819 20.819c.752 1.602 1.788 3.105 3.111 4.429z" fill="url(#SVGID_00000081648632148844244130000006101294058515837059_)"/></g></g><g><path d="m390.404 311.358c4.142 0 7.5-3.358 7.5-7.5s-3.358-7.5-7.5-7.5h-24.263c-4.142 0-7.5 3.358-7.5 7.5s3.358 7.5 7.5 7.5z" fill="url(#SVGID_00000018949396041823378140000007124966244687313028_)"/><g><circle cx="358.846" cy="303.858" fill="url(#SVGID_00000043454957284656377990000016793891509530524827_)" r="15.654"/><path d="m343.193 303.858c0 8.645 7.008 15.654 15.654 15.654 8.645 0 15.654-7.008 15.654-15.654 0-1.872-.33-3.667-.933-5.332h-29.442c-.604 1.665-.933 3.46-.933 5.332z" fill="url(#SVGID_00000026129988917860101070000001706079557970774939_)"/><path d="m347.777 314.927c6.113 6.113 16.025 6.113 22.138 0s6.113-16.025 0-22.138c-1.324-1.324-2.826-2.36-4.43-3.11l-20.819 20.819c.752 1.602 1.788 3.105 3.111 4.429z" fill="url(#SVGID_00000088822503303234397570000007532951186267316907_)"/></g></g></g></svg>