<svg id="Capa_1" enable-background="new 0 0 510 510" height="512" viewBox="0 0 510 510" width="512" xmlns="http://www.w3.org/2000/svg" xmlns:xlink="http://www.w3.org/1999/xlink"><linearGradient id="SVGID_1_" gradientUnits="userSpaceOnUse" x1="192.026" x2="392.684" y1="443.301" y2="443.301"><stop offset="0" stop-color="#7e8595"/><stop offset="1" stop-color="#555a66"/></linearGradient><linearGradient id="SVGID_2_" gradientUnits="userSpaceOnUse" x1="266.292" x2="241.6" y1="478.441" y2="330.909"><stop offset="0" stop-color="#555a66" stop-opacity="0"/><stop offset="1" stop-color="#555a66"/></linearGradient><radialGradient id="SVGID_3_" cx="188.668" cy="156.399" gradientUnits="userSpaceOnUse" r="359.115"><stop offset="0" stop-color="#f9f7fc"/><stop offset=".3978" stop-color="#f8f3fc"/><stop offset=".7722" stop-color="#f4e8fc"/><stop offset="1" stop-color="#f0ddfc"/></radialGradient><linearGradient id="lg1"><stop offset="0" stop-color="#f0ddfc" stop-opacity="0"/><stop offset=".2889" stop-color="#c8b7e0" stop-opacity=".289"/><stop offset=".5915" stop-color="#a595c8" stop-opacity=".592"/><stop offset=".8395" stop-color="#8f81b8" stop-opacity=".84"/><stop offset="1" stop-color="#8779b3"/></linearGradient><linearGradient id="SVGID_4_" gradientUnits="userSpaceOnUse" x1="348.164" x2="735.033" xlink:href="#lg1" y1="269.898" y2="221.813"/><linearGradient id="lg2"><stop offset="0" stop-color="#f9f7fc"/><stop offset="1" stop-color="#f0ddfc"/></linearGradient><linearGradient id="SVGID_5_" gradientUnits="userSpaceOnUse" x1="235.685" x2="307.482" xlink:href="#lg2" y1="158.77" y2="340.295"/><linearGradient id="lg3"><stop offset="0" stop-color="#fff" stop-opacity="0"/><stop offset="1" stop-color="#fff"/></linearGradient><linearGradient id="SVGID_6_" gradientUnits="userSpaceOnUse" x1="226.412" x2="-57.907" xlink:href="#lg3" y1="285.047" y2="335.994"/><linearGradient id="SVGID_7_" gradientTransform="matrix(-1 0 0 -1 510 334.479)" gradientUnits="userSpaceOnUse" x1="238.504" x2="299.821" xlink:href="#lg2" y1="87.93" y2="242.959"/><linearGradient id="lg4"><stop offset="0" stop-color="#18cffc"/><stop offset="1" stop-color="#4a98f7"/></linearGradient><linearGradient id="SVGID_8_" gradientUnits="userSpaceOnUse" x1="194.504" x2="225.293" xlink:href="#lg4" y1="239.106" y2="269.895"/><linearGradient id="lg5"><stop offset="0" stop-color="#18cffc" stop-opacity="0"/><stop offset="1" stop-color="#65e1dc"/></linearGradient><linearGradient id="SVGID_9_" gradientUnits="userSpaceOnUse" x1="205.648" x2="184.065" xlink:href="#lg5" y1="250.618" y2="229.034"/><linearGradient id="lg6"><stop offset="0" stop-color="#0469bc" stop-opacity="0"/><stop offset="1" stop-color="#0469bc"/></linearGradient><linearGradient id="SVGID_10_" gradientUnits="userSpaceOnUse" x1="204.961" x2="235.805" xlink:href="#lg6" y1="255.751" y2="198.385"/><linearGradient id="SVGID_11_" gradientUnits="userSpaceOnUse" x1="129.646" x2="165.276" xlink:href="#lg4" y1="219.011" y2="254.641"/><linearGradient id="SVGID_12_" gradientUnits="userSpaceOnUse" x1="142.679" x2="117.783" xlink:href="#lg5" y1="232.046" y2="207.149"/><linearGradient id="SVGID_13_" gradientUnits="userSpaceOnUse" x1="140.89" x2="178.702" xlink:href="#lg6" y1="239.848" y2="169.523"/><linearGradient id="SVGID_14_" gradientUnits="userSpaceOnUse" x1="207.537" x2="235.29" xlink:href="#lg4" y1="254.236" y2="281.989"/><linearGradient id="SVGID_15_" gradientUnits="userSpaceOnUse" x1="244.656" x2="246.032" xlink:href="#lg4" y1="264.162" y2="265.537"/><linearGradient id="SVGID_16_" gradientUnits="userSpaceOnUse" x1="217.264" x2="200.507" xlink:href="#lg5" y1="264.533" y2="247.776"/><linearGradient id="SVGID_17_" gradientUnits="userSpaceOnUse" x1="235.99" x2="241.735" xlink:href="#lg6" y1="261.086" y2="250.399"/><linearGradient id="SVGID_18_" gradientUnits="userSpaceOnUse" x1="157.405" x2="199.525" xlink:href="#lg4" y1="244.244" y2="286.363"/><linearGradient id="SVGID_19_" gradientUnits="userSpaceOnUse" x1="172.211" x2="144.249" xlink:href="#lg5" y1="260.92" y2="232.958"/><linearGradient id="SVGID_20_" gradientUnits="userSpaceOnUse" x1="194.732" x2="208.367" xlink:href="#lg6" y1="255.838" y2="230.477"/><linearGradient id="SVGID_21_" gradientUnits="userSpaceOnUse" x1="119.721" x2="132.2" xlink:href="#lg4" y1="248.218" y2="278.013"/><linearGradient id="SVGID_22_" gradientUnits="userSpaceOnUse" x1="123.885" x2="101.82" xlink:href="#lg5" y1="255.214" y2="233.15"/><linearGradient id="SVGID_23_" gradientUnits="userSpaceOnUse" x1="376.025" x2="264.201" y1="213.748" y2="121.875"><stop offset="0" stop-color="#f0ddfc" stop-opacity="0"/><stop offset=".5373" stop-color="#b9a9d6" stop-opacity=".537"/><stop offset="1" stop-color="#8779b3"/></linearGradient><linearGradient id="SVGID_24_" gradientUnits="userSpaceOnUse" x1="380.273" x2="406.766" xlink:href="#lg4" y1="237.479" y2="263.972"/><linearGradient id="SVGID_25_" gradientUnits="userSpaceOnUse" x1="390.386" x2="371.512" xlink:href="#lg5" y1="248.09" y2="229.216"/><linearGradient id="SVGID_26_" gradientUnits="userSpaceOnUse" x1="402.699" x2="418.506" xlink:href="#lg6" y1="245.471" y2="216.071"/><linearGradient id="SVGID_27_" gradientUnits="userSpaceOnUse" x1="315.99" x2="351.621" xlink:href="#lg4" y1="219.012" y2="254.643"/><linearGradient id="SVGID_28_" gradientUnits="userSpaceOnUse" x1="329.024" x2="304.127" xlink:href="#lg5" y1="232.046" y2="207.149"/><linearGradient id="SVGID_29_" gradientUnits="userSpaceOnUse" x1="327.238" x2="365.053" xlink:href="#lg6" y1="239.849" y2="169.518"/><linearGradient id="SVGID_30_" gradientUnits="userSpaceOnUse" x1="391.424" x2="402.733" xlink:href="#lg4" y1="248.953" y2="260.262"/><linearGradient id="SVGID_31_" gradientUnits="userSpaceOnUse" x1="339.368" x2="375.055" xlink:href="#lg4" y1="245.324" y2="281.012"/><linearGradient id="SVGID_32_" gradientUnits="userSpaceOnUse" x1="352.75" x2="329.458" xlink:href="#lg5" y1="259.613" y2="236.321"/><linearGradient id="SVGID_33_" gradientUnits="userSpaceOnUse" x1="379.116" x2="388.868" xlink:href="#lg6" y1="250.543" y2="232.406"/><linearGradient id="SVGID_34_" gradientUnits="userSpaceOnUse" x1="298.285" x2="311.253" xlink:href="#lg4" y1="252.174" y2="283.139"/><linearGradient id="SVGID_35_" gradientUnits="userSpaceOnUse" x1="304.62" x2="280.127" xlink:href="#lg5" y1="263.509" y2="239.015"/><linearGradient id="SVGID_36_" gradientUnits="userSpaceOnUse" x1="197.24" x2="367.125" xlink:href="#lg4" y1="232.011" y2="232.011"/><linearGradient id="SVGID_37_" gradientUnits="userSpaceOnUse" x1="255" x2="255" xlink:href="#lg6" y1="222.141" y2="200.654"/><linearGradient id="SVGID_38_" gradientUnits="userSpaceOnUse" x1="283.955" x2="200.068" xlink:href="#lg5" y1="220.624" y2="263.024"/><linearGradient id="SVGID_39_" gradientUnits="userSpaceOnUse" x1="258.637" x2="324.172" xlink:href="#lg6" y1="235.987" y2="310.883"/><linearGradient id="SVGID_40_" gradientUnits="userSpaceOnUse" x1="217.807" x2="234.13" xlink:href="#lg5" y1="222.275" y2="241.772"/><linearGradient id="SVGID_41_" gradientUnits="userSpaceOnUse" x1="272.046" x2="288.369" xlink:href="#lg5" y1="234.147" y2="253.645"/><linearGradient id="SVGID_42_" gradientUnits="userSpaceOnUse" x1="245.412" x2="257.493" xlink:href="#lg5" y1="242.455" y2="256.886"/><linearGradient id="SVGID_43_" gradientUnits="userSpaceOnUse" x1="174.192" x2="174.192" xlink:href="#lg2" y1="67.395" y2="120.12"/><linearGradient id="SVGID_44_" gradientTransform="matrix(-1 0 0 1 -1255.976 0)" gradientUnits="userSpaceOnUse" x1="-1591.785" x2="-1591.785" xlink:href="#lg2" y1="67.395" y2="120.12"/><linearGradient id="SVGID_45_" gradientUnits="userSpaceOnUse" x1="348.154" x2="260.651" xlink:href="#lg1" y1="103.221" y2="66.999"/><linearGradient id="SVGID_46_" gradientUnits="userSpaceOnUse" x1="241.437" x2="274.439" y1="42.248" y2="75.25"><stop offset="0" stop-color="#ffda45"/><stop offset="1" stop-color="#ffa425"/></linearGradient><linearGradient id="SVGID_47_" gradientUnits="userSpaceOnUse" x1="233.886" x2="285.263" xlink:href="#lg2" y1="67.835" y2="119.212"/><linearGradient id="SVGID_48_" gradientUnits="userSpaceOnUse" x1="255.623" x2="207.599" xlink:href="#lg3" y1="89.263" y2="37.168"/><linearGradient id="SVGID_49_" gradientUnits="userSpaceOnUse" x1="315.595" x2="280.649" xlink:href="#lg1" y1="145.705" y2="112.424"/><linearGradient id="SVGID_50_" gradientUnits="userSpaceOnUse" x1="226.579" x2="276.105" xlink:href="#lg2" y1="119.015" y2="197.706"/><linearGradient id="SVGID_51_" gradientUnits="userSpaceOnUse" x1="257.746" x2="238.486" xlink:href="#lg3" y1="159.426" y2="69.729"/><linearGradient id="SVGID_52_" gradientUnits="userSpaceOnUse" x1="255" x2="255" xlink:href="#lg2" y1="186.5" y2="207.411"/><path d="m321.751 484.917h-133.502c-5.534 0-10.02-4.486-10.02-10.02v-73.212h153.542v73.212c0 5.534-4.486 10.02-10.02 10.02z" fill="url(#SVGID_1_)"/><path d="m178.229 401.684v18.58l64.653 64.653h78.869c5.534 0 10.02-4.486 10.02-10.02v-73.212h-153.542z" fill="url(#SVGID_2_)"/><path d="m510 207.606c0 100.403-114.167 225.145-255 225.145s-255-124.742-255-225.145 510-100.403 510 0z" fill="url(#SVGID_3_)"/><path d="m217.376 133.041c113.798 4.465 217.376 29.318 217.376 74.565 0 91.289-94.385 202.686-217.376 222.16 12.279 1.944 24.84 2.985 37.624 2.985 140.833 0 255-124.742 255-225.145 0-55.156-153.905-80.008-292.624-74.565z" fill="url(#SVGID_4_)"/><path d="m510 207.606c0 100.403-510 100.403-510 0s510-100.403 510 0z" fill="url(#SVGID_5_)"/><path d="m268.672 432.352c134.475-7.709 241.328-127.614 241.328-224.746 0-48.406-118.544-73.471-241.328-75.202-122.783 1.731-241.328 26.796-241.328 75.202 0 97.132 106.853 217.037 241.328 224.746z" fill="url(#SVGID_6_)"/><path d="m27.344 204.842c0-78.502 455.311-78.502 455.311 0s-455.311 78.502-455.311 0z" fill="url(#SVGID_7_)"/><path d="m227.096 248.253c0 .73-.036 1.46-.096 2.178-.191 2.094-.646 4.116-1.352 6.019-.897 2.453-2.178 4.714-3.793 6.713-1.735-.06-3.458-.12-5.193-.192-2.453-.096-4.906-.191-7.347-.311-2.716-.132-5.42-.275-8.113-.419-2.273-.132-4.535-.263-6.785-.407l-3.159-.215c-.981-.06-1.962-.132-2.932-.203-.646-.036-1.292-.084-1.926-.132-1.101-.084-2.19-.168-3.278-.251-.012 0-.012 0-.012 0-.084-.132-.167-.263-.251-.407-.192-.323-.383-.646-.562-.969-.012-.012-.012-.024-.012-.036-.084-.144-.156-.287-.227-.431-.048-.084-.084-.167-.12-.251-1.627-3.207-2.537-6.844-2.537-10.685 0-2.19.299-4.319.862-6.33.658-2.441 1.699-4.714 3.063-6.773 4.26-6.473 11.583-10.745 19.923-10.745 3.841 0 7.478.909 10.685 2.537.084.036.168.072.251.12.144.072.287.143.431.227.012 0 .024 0 .036.012.323.179.646.371.969.562.275.168.55.347.826.526.682.443 1.34.933 1.974 1.46.586.491 1.149.993 1.687 1.544.275.263.538.55.79.826.215.227.419.467.622.706 1.28 1.52 2.357 3.195 3.219 4.99.167.347.335.694.479 1.053.191.455.371.909.538 1.388.096.263.18.527.263.802.12.359.227.73.311 1.101.084.299.156.598.215.897.06.239.108.491.156.742.012.072.024.156.036.227.048.227.084.455.108.694.048.275.084.562.108.85.024.156.036.311.048.479.024.287.048.586.06.874.023.405.035.823.035 1.23z" fill="url(#SVGID_8_)"/><path d="m223.16 248.253c0 .347-.012.682-.024 1.029-.108 2.082-.538 4.092-1.244 5.959-1.113 2.979-2.92 5.624-5.229 7.73-2.453-.096-4.906-.191-7.347-.311-2.716-.132-5.42-.275-8.113-.419-2.273-.132-4.535-.263-6.785-.407l-3.159-.215c-.981-.06-1.962-.132-2.932-.203-.144-.144-.263-.299-.383-.443h-.012c-.203-.251-.407-.503-.598-.754-2.501-3.338-3.985-7.478-3.985-11.966 0-1.615.192-3.171.551-4.678.586-2.417 1.603-4.655 2.979-6.641.036-.048.06-.084.096-.132 3.602-5.109 9.549-8.448 16.273-8.448 4.834 0 9.273 1.723 12.731 4.595 4.381 3.65 7.181 9.142 7.181 15.304z" fill="url(#SVGID_9_)"/><path d="m227.096 248.253c0 .73-.036 1.46-.096 2.178-.191 2.094-.646 4.116-1.352 6.019-.897 2.453-2.178 4.714-3.793 6.713-1.735-.06-3.458-.12-5.193-.192-2.453-.096-4.906-.191-7.347-.311-2.716-.132-5.42-.275-8.113-.419-2.273-.132-4.535-.263-6.785-.407l-3.159-.215c-.981-.06-1.962-.132-2.932-.203-.646-.036-1.292-.084-1.926-.132-1.101-.084-2.19-.168-3.278-.251.084.144.167.287.263.419-.096-.132-.191-.275-.275-.419-.084-.132-.167-.263-.251-.407-.192-.323-.383-.646-.562-.969-.012-.012-.012-.024-.012-.036-.084-.144-.156-.287-.227-.431-.048-.084-.096-.179-.144-.263.012 0 .012.012.024.012 1.555.778 3.207 1.388 4.93 1.807.359.096.706.168 1.065.227h.012c1.077.227 2.202.371 3.338.419.431.036.861.048 1.304.048.814 0 1.615-.036 2.417-.12 1.807-.18 3.566-.574 5.241-1.149 2.393-.802 4.619-1.974 6.593-3.458.778-.586 1.508-1.208 2.202-1.879 1.986-1.867 3.638-4.092 4.87-6.569 1.615-3.207 2.525-6.832 2.525-10.673 0-1.592-.156-3.147-.455-4.643-.419-2.118-1.113-4.128-2.046-6.007 0-.012-.012-.012-.012-.024.084.048.18.096.263.144.144.072.287.143.431.227.012 0 .024 0 .036.012.323.179.646.371.969.562.275.168.55.347.826.526.682.443 1.34.933 1.974 1.46.586.491 1.149.993 1.687 1.544.275.263.538.55.79.826.215.227.419.467.622.706 1.28 1.52 2.357 3.195 3.219 4.99.167.347.335.694.479 1.053.191.455.371.909.538 1.388.096.263.18.527.263.802.12.359.227.73.311 1.101.084.299.156.598.215.897.06.239.108.491.156.742.012.072.024.156.036.227.048.227.084.455.108.694.048.275.084.562.108.85.024.156.036.311.048.479.024.287.048.586.06.874.023.406.035.824.035 1.231z" fill="url(#SVGID_10_)"/><path d="m167.448 229.3c0 .897-.048 1.795-.132 2.668-.251 2.608-.861 5.109-1.795 7.443-2.489 6.33-7.263 11.499-13.306 14.514-2.214 1.125-4.607 1.938-7.119 2.405-1.017.204-2.058.335-3.123.407-2.142-.287-4.26-.586-6.366-.897-1.855-.275-3.697-.55-5.516-.838-.287-.108-.574-.227-.861-.347-.419-.168-.814-.359-1.22-.55-.024-.012-.06-.024-.084-.036-.167-.084-.323-.168-.479-.251-.383-.191-.766-.395-1.137-.61-1.173-.67-2.285-1.412-3.338-2.25-.239-.179-.479-.383-.706-.574-1.52-1.268-2.896-2.704-4.104-4.272-.132-.167-.251-.335-.383-.503-.179-.251-.359-.503-.538-.754-.132-.203-.275-.407-.395-.61-.156-.215-.299-.443-.431-.682-.191-.311-.383-.622-.55-.945-.084-.144-.156-.275-.227-.419-.108-.191-.203-.383-.287-.574-.957-1.891-1.699-3.901-2.19-6.019-.479-2.022-.73-4.14-.73-6.306 0-15.184 12.312-27.509 27.509-27.509 4.427 0 8.603 1.041 12.3 2.908.443.215.874.455 1.292.694.395.215.79.455 1.173.706.263.167.527.335.778.514.263.179.514.359.766.538.251.192.503.383.742.574.191.144.371.287.55.443.299.239.598.503.885.766 0 0 0 0 .012.012.299.275.598.55.885.838.371.371.73.742 1.077 1.137.263.287.514.586.766.885.191.239.395.479.574.73.144.18.287.359.419.551.503.67.957 1.376 1.388 2.094.132.215.251.419.359.634.096.156.18.311.263.467.06.084.108.18.144.275.156.275.287.55.419.826.203.395.383.802.551 1.209.311.73.586 1.472.837 2.238.072.239.156.479.215.718.299 1.005.538 2.022.706 3.075.048.239.084.479.12.718.012.084.024.168.036.263.048.287.084.586.108.885.036.371.072.754.084 1.137.024.191.036.395.036.598.011.358.023.717.023 1.076z" fill="url(#SVGID_11_)"/><circle cx="139.938" cy="229.305" fill="url(#SVGID_12_)" r="22.96"/><path d="m167.448 229.3c0 .897-.048 1.795-.132 2.668-.251 2.608-.861 5.109-1.795 7.443-2.489 6.33-7.263 11.499-13.306 14.514-2.214 1.125-4.607 1.938-7.119 2.405-1.017.204-2.058.335-3.123.407-2.142-.287-4.26-.586-6.366-.897-1.855-.275-3.697-.55-5.516-.838-.287-.108-.574-.227-.861-.347-.419-.168-.814-.359-1.22-.55-.024-.012-.06-.024-.084-.036-.167-.084-.323-.168-.479-.251-.383-.191-.766-.395-1.137-.61-1.173-.67-2.285-1.412-3.338-2.25-.239-.179-.479-.383-.706-.574-1.52-1.268-2.896-2.704-4.104-4.272-.132-.167-.251-.335-.383-.503-.179-.251-.359-.503-.538-.754-.132-.203-.275-.407-.395-.61-.156-.215-.299-.443-.431-.682-.191-.311-.383-.622-.55-.945-.084-.144-.156-.275-.227-.419-.108-.191-.215-.395-.311-.586.012 0 .012.012.024.012.73.371 1.496.706 2.261.993 1.496.598 3.051 1.053 4.667 1.364 1.735.347 3.53.526 5.361.526.227 0 .455 0 .67-.012 3.243-.072 6.342-.718 9.214-1.819.646-.251 1.28-.527 1.903-.826 2.884-1.364 5.48-3.207 7.694-5.432 4.966-4.978 8.029-11.834 8.029-19.42 0-1.831-.179-3.626-.526-5.349-.479-2.453-1.292-4.786-2.381-6.952.443.215.874.455 1.292.694.395.215.79.455 1.173.706.263.167.527.335.778.514.263.179.514.359.766.538.251.192.503.383.742.574.191.144.371.287.55.443.299.239.598.503.885.766 0 0 0 0 .012.012.299.275.598.55.885.838.371.371.73.742 1.077 1.137.263.287.514.586.766.885.191.239.395.479.574.73.144.18.287.359.419.551.503.67.957 1.376 1.388 2.094.132.215.251.419.359.634.096.156.18.311.263.467.06.084.108.18.144.275.156.275.287.55.419.826.203.395.383.802.551 1.209.311.73.586 1.472.837 2.238.072.239.156.479.215.718.299 1.005.538 2.022.706 3.075.048.239.084.479.12.718.012.084.024.168.036.263.048.287.084.586.108.885.036.371.072.754.084 1.137.024.191.036.395.036.598.008.359.02.718.02 1.077z" fill="url(#SVGID_13_)"/><path d="m244.446 263.665c-2.68-.024-5.361-.06-8.029-.12-.634-.012-1.28-.024-1.914-.036-4.224-.084-8.448-.203-12.648-.347-1.735-.06-3.458-.12-5.193-.192-2.453-.096-4.906-.191-7.347-.311-2.716-.132-5.42-.275-8.113-.419-2.273-.132-4.535-.263-6.785-.407l-3.159-.215c-.981-.06-1.962-.132-2.932-.203-.646-.036-1.292-.084-1.926-.132.156-.18.311-.359.467-.539.156-.179.311-.359.467-.526 1.292-1.412 2.68-2.704 4.164-3.901 1.364-1.101 2.824-2.094 4.343-2.991 2.178-1.292 4.511-2.357 6.952-3.171 3.506-1.173 7.239-1.843 11.116-1.891.192-.012.395-.012.586-.012 2.967 0 5.863.347 8.639 1.029 1.316.311 2.608.694 3.865 1.149 1.352.491 2.68 1.053 3.961 1.699.431.215.85.431 1.268.67.311.167.634.359.945.538.395.227.778.467 1.161.706.323.215.646.431.957.646.347.239.694.479 1.029.73.299.227.598.455.897.682.036.036.072.06.096.084.335.251.658.514.969.79.335.287.658.574.981.862.299.263.586.538.874.826.299.287.598.586.885.885l.12.12c.239.263.491.526.73.802.287.299.55.622.826.945.251.299.503.61.754.921.012.012.024.036.036.048.251.323.502.658.754.993.073.097.145.192.204.288z" fill="url(#SVGID_14_)"/><path d="m244.458 263.665c.419.586.814 1.185 1.197 1.795-.383-.61-.79-1.208-1.208-1.795z" fill="url(#SVGID_15_)"/><path d="m236.417 263.545c-.634-.012-1.28-.024-1.914-.036-4.224-.084-8.448-.203-12.648-.347-1.735-.06-3.458-.12-5.193-.192-2.453-.096-4.906-.191-7.347-.311-2.716-.132-5.42-.275-8.113-.419-2.273-.132-4.535-.263-6.785-.407.191-.18.383-.347.586-.514 1.34-1.101 2.764-2.094 4.284-2.944 2.154-1.244 4.463-2.214 6.904-2.896.933-.263 1.879-.479 2.848-.646 1.771-.323 3.59-.491 5.456-.491 2.549 0 5.025.311 7.395.897 1.292.311 2.549.718 3.757 1.209 3.111 1.197 5.971 2.896 8.495 4.99.792.659 1.558 1.365 2.275 2.107z" fill="url(#SVGID_16_)"/><path d="m244.446 263.665c-2.68-.024-5.361-.06-8.029-.12-.634-.012-1.28-.024-1.914-.036-.096-.694-.215-1.388-.359-2.07-.646-3.279-1.723-6.402-3.183-9.309.431.215.85.431 1.268.67.311.167.634.359.945.538.395.227.778.467 1.161.706.323.215.646.431.957.646.347.239.694.479 1.029.73.299.227.598.455.897.682.036.036.072.06.096.084.335.251.658.514.969.79.335.287.658.574.981.862.299.263.586.538.874.826.299.287.598.586.885.885l.12.12c.239.263.491.526.73.802.287.299.55.622.826.945.251.299.503.61.754.921.012.012.024.036.036.048.251.323.502.658.754.993.072.096.144.191.203.287z" fill="url(#SVGID_17_)"/><path d="m209.316 262.66c-2.716-.132-5.42-.275-8.113-.419-2.273-.132-4.535-.263-6.785-.407l-3.159-.215c-.981-.06-1.962-.132-2.932-.203-.646-.036-1.292-.084-1.926-.132-1.101-.084-2.19-.168-3.278-.251.084.144.167.287.263.419-.096-.132-.191-.275-.275-.419-9.62-.742-19.037-1.639-28.191-2.692-3.075-.347-6.126-.718-9.13-1.113-1.28-.155-2.549-.323-3.817-.49-2.142-.287-4.26-.586-6.366-.897-1.855-.275-3.697-.55-5.516-.838-.838-.12-1.663-.251-2.489-.395.12-.179.215-.359.323-.538.79-1.328 1.639-2.62 2.549-3.853.909-1.232 1.89-2.417 2.92-3.554 1.292-1.412 2.668-2.74 4.128-3.985.455-.395.909-.766 1.376-1.137 2.537-1.986 5.289-3.709 8.22-5.121 4.786-2.321 10.051-3.805 15.603-4.296 1.292-.108 2.608-.167 3.937-.167.215 0 .443 0 .658.012 5.648.072 11.044 1.196 16.01 3.183 1.173.467 2.321.981 3.446 1.544.072.036.132.072.203.108.335.167.682.347 1.005.526.574.299 1.125.622 1.675.945.383.227.766.467 1.137.706.335.215.67.431 1.005.658.203.132.407.275.598.407.311.215.622.443.921.67.371.275.742.55 1.101.826 1.268 1.005 2.477 2.058 3.626 3.183.167.168.347.335.514.515.18.167.347.347.503.514l.143.144c.299.311.61.646.898.969.347.383.682.766 1.005 1.161.311.371.622.742.921 1.125.263.335.515.67.766 1.005.682.909 1.316 1.855 1.926 2.812.251.407.503.802.742 1.221.251.431.491.862.73 1.292.072.132.144.275.227.407.144.275.287.551.419.826.971 1.912 1.797 3.898 2.479 5.944z" fill="url(#SVGID_18_)"/><path d="m201.203 262.241c-2.273-.132-4.535-.263-6.785-.407l-3.159-.215c-.981-.06-1.962-.132-2.932-.203-.646-.036-1.292-.084-1.926-.132-1.101-.084-2.19-.168-3.278-.251.084.144.167.287.263.419-.096-.132-.191-.275-.275-.419-9.62-.742-19.037-1.639-28.191-2.692-3.075-.347-6.126-.718-9.13-1.113-1.28-.155-2.549-.323-3.817-.49-2.142-.287-4.26-.586-6.366-.897.861-1.268 1.795-2.477 2.8-3.626.419-.479.85-.945 1.292-1.4 1.675-1.735 3.518-3.302 5.504-4.69 4.427-3.087 9.56-5.253 15.089-6.198 1.711-.287 3.458-.467 5.229-.514.383-.024.754-.024 1.137-.024 4.798 0 9.393.897 13.605 2.537 1.244.49 2.453 1.041 3.638 1.651 2.417 1.256 4.69 2.764 6.76 4.499 1.903 1.579 3.638 3.338 5.181 5.253 1.28 1.579 2.441 3.266 3.446 5.049.335.586.658 1.185.957 1.795.348.68.659 1.374.958 2.068z" fill="url(#SVGID_19_)"/><path d="m209.316 262.66c-2.716-.132-5.42-.275-8.113-.419-2.273-.132-4.535-.263-6.785-.407l-3.159-.215c0-.072.012-.143.024-.227.144-1.508.227-3.039.227-4.583 0-.168 0-.323-.012-.491-.024-2.824-.311-5.576-.838-8.244-.766-3.925-2.046-7.658-3.781-11.14-.024-.084-.072-.156-.108-.239.072.036.132.072.203.108.335.167.682.347 1.005.526.574.299 1.125.622 1.675.945.383.227.766.467 1.137.706.335.215.67.431 1.005.658.203.132.407.275.598.407.311.215.622.443.921.67.371.275.742.55 1.101.826 1.268 1.005 2.477 2.058 3.626 3.183.167.168.347.335.514.515.18.167.347.347.503.514l.143.144c.299.311.61.646.898.969.347.383.682.766 1.005 1.161.311.371.622.742.921 1.125.263.335.515.67.766 1.005.682.909 1.316 1.855 1.926 2.812.251.407.503.802.742 1.221.251.431.491.862.73 1.292.072.132.144.275.227.407.144.275.287.551.419.826.972 1.913 1.798 3.899 2.48 5.945z" fill="url(#SVGID_20_)"/><path d="m154.92 258.34c-3.075-.347-6.126-.718-9.13-1.113-1.28-.155-2.549-.323-3.817-.49-2.142-.287-4.26-.586-6.366-.897-1.855-.275-3.697-.55-5.516-.838-.838-.12-1.663-.251-2.489-.395-10.889-1.747-21.203-3.745-30.763-5.983-3.027-.706-5.971-1.448-8.831-2.202 6.796-6.079 15.531-10.027 25.152-10.817 1.197-.108 2.405-.156 3.625-.156.347 0 .694 0 1.029.012 7.694.179 14.897 2.369 21.083 6.078.18.096.359.203.527.311 2.046 1.256 3.984 2.692 5.779 4.272 1.472 1.28 2.848 2.656 4.128 4.128 1.029 1.173 1.986 2.393 2.884 3.673.994 1.414 1.892 2.886 2.705 4.417z" fill="url(#SVGID_21_)"/><path d="m145.791 257.227c-1.28-.155-2.549-.323-3.817-.49-2.142-.287-4.26-.586-6.366-.897-1.855-.275-3.697-.55-5.516-.838-.838-.12-1.663-.251-2.489-.395-10.889-1.747-21.203-3.745-30.763-5.983 5.468-3.649 11.989-5.839 19.025-6.007.299-.024.61-.024.921-.024.275 0 .55 0 .826.024 1.292.012 2.573.108 3.829.287 2.369.299 4.667.826 6.868 1.591 1.759.574 3.458 1.304 5.085 2.166 2.249 1.149 4.367 2.549 6.306 4.152.55.455 1.077.921 1.603 1.412 1.376 1.256 2.645 2.632 3.793 4.104.24.3.467.587.695.898z" fill="url(#SVGID_22_)"/><path d="m298.772 133.303v148.606c111.353-5.108 211.228-29.873 211.228-74.303 0-44.431-99.875-69.196-211.228-74.303z" fill="url(#SVGID_23_)"/><path d="m413.447 248.253c0 .096 0 .204-.012.299-1.161.275-2.357.55-3.554.826-.143.036-.275.06-.419.096-3.697.826-7.502 1.615-11.403 2.369-2.262.443-4.559.874-6.892 1.28h-.012c-2.644.479-5.325.933-8.041 1.376-1.196.191-2.405.383-3.614.562-.55.096-1.113.179-1.663.263-2.13.323-4.284.646-6.461.945-1.34.191-2.68.371-4.032.551-1.029-2.656-1.591-5.54-1.591-8.567 0-2.19.299-4.319.861-6.33.658-2.441 1.699-4.714 3.063-6.773 4.26-6.473 11.583-10.745 19.923-10.745 3.841 0 7.466.909 10.673 2.525.239.12.479.239.718.371.311.167.61.335.909.526.215.12.419.251.622.383.179.12.371.239.55.371.215.156.443.311.658.467s.431.323.634.479c.012.012.024.012.024.024.203.168.419.335.61.503.514.431.993.874 1.46 1.34.227.227.454.467.682.706.431.467.838.957 1.232 1.46.168.215.335.431.491.646.849 1.161 1.603 2.405 2.225 3.709.168.347.335.694.479 1.053.191.455.371.909.538 1.388.096.263.179.527.263.802.12.359.227.73.311 1.101.084.299.155.598.215.897.06.239.108.491.156.742.012.072.024.156.036.227.048.227.084.455.108.694.048.275.084.562.108.85.024.156.036.311.048.479.024.287.048.586.06.874.025.406.037.824.037 1.231z" fill="url(#SVGID_24_)"/><path d="m409.499 248.253c0 .335-.012.682-.024 1.017 0 .06-.012.132-.012.203-3.697.826-7.502 1.615-11.403 2.369-2.262.443-4.559.874-6.892 1.28h-.012c-2.644.479-5.325.933-8.041 1.376-1.196.191-2.405.383-3.614.562-.55.096-1.113.179-1.663.263-2.13.323-4.284.646-6.461.945-1.089-2.453-1.687-5.169-1.687-8.017 0-1.615.191-3.171.551-4.678h.012c.574-2.417 1.603-4.667 2.979-6.653.024-.036.048-.084.084-.12 3.602-5.109 9.56-8.448 16.285-8.448 4.834 0 9.285 1.723 12.731 4.607 4.379 3.652 7.167 9.144 7.167 15.294z" fill="url(#SVGID_25_)"/><path d="m413.447 248.253c0 .096 0 .204-.012.299-1.161.275-2.357.55-3.554.826-.143.036-.275.06-.419.096-3.697.826-7.502 1.615-11.403 2.369.838-1.113 1.579-2.309 2.202-3.578 1.615-3.207 2.525-6.832 2.525-10.673 0-1.579-.156-3.135-.455-4.631-.419-2.13-1.113-4.152-2.058-6.031.239.12.479.239.718.371.311.167.61.335.909.526.215.12.419.251.622.383.179.12.371.239.55.371.215.156.443.311.658.467s.431.323.634.479c.012.012.024.012.024.024.203.168.419.335.61.503.514.431.993.874 1.46 1.34.227.227.454.467.682.706.431.467.838.957 1.232 1.46.168.215.335.431.491.646.849 1.161 1.603 2.405 2.225 3.709.168.347.335.694.479 1.053.191.455.371.909.538 1.388.096.263.179.527.263.802.12.359.227.73.311 1.101.084.299.155.598.215.897.06.239.108.491.156.742.012.072.024.156.036.227.048.227.084.455.108.694.048.275.084.562.108.85.024.156.036.311.048.479.024.287.048.586.06.874.025.406.037.824.037 1.231z" fill="url(#SVGID_26_)"/><circle cx="326.283" cy="229.305" fill="url(#SVGID_27_)" r="27.511"/><circle cx="326.283" cy="229.305" fill="url(#SVGID_28_)" r="22.96"/><path d="m338.589 204.696c1.855 3.703 2.901 7.882 2.901 12.306 0 15.194-12.317 27.511-27.511 27.511-4.424 0-8.603-1.046-12.306-2.901 4.517 9.015 13.84 15.204 24.61 15.204 15.194 0 27.511-12.317 27.511-27.511 0-10.769-6.19-20.092-15.205-24.609z" fill="url(#SVGID_29_)"/><path d="m409.881 249.378c-.143.036-.275.06-.419.096-3.697.826-7.502 1.615-11.403 2.369-2.262.443-4.559.874-6.892 1.28h-.012c-2.644.479-5.325.933-8.041 1.376-1.196.191-2.405.383-3.614.562.874-.61 1.771-1.197 2.692-1.735 2.178-1.292 4.511-2.357 6.952-3.171 3.506-1.173 7.239-1.843 11.116-1.891.191-.012.395-.012.586-.012 2.967 0 5.851.347 8.627 1.017.133.037.265.061.408.109z" fill="url(#SVGID_30_)"/><path d="m391.155 253.123c-2.644.479-5.325.933-8.041 1.376-1.196.191-2.405.383-3.614.562-.55.096-1.113.179-1.663.263-2.13.323-4.284.646-6.461.945-1.34.191-2.68.371-4.032.551-8.22 1.101-16.692 2.07-25.367 2.896-2.561.251-5.133.491-7.73.718-5.109.443-10.29.837-15.519 1.185-2.716.191-5.444.359-8.184.514.981-2.836 2.237-5.528 3.733-8.065.79-1.328 1.639-2.62 2.549-3.853.909-1.232 1.891-2.417 2.92-3.554 1.292-1.412 2.668-2.74 4.128-3.985.455-.395.909-.766 1.376-1.137 2.537-1.986 5.289-3.709 8.22-5.121 4.786-2.321 10.051-3.805 15.591-4.296 1.304-.108 2.621-.167 3.949-.167.216 0 .443 0 .658.012 5.648.072 11.044 1.196 16.01 3.183 1.173.467 2.321.981 3.446 1.544v.012c.072.024.132.06.191.096.73.359 1.448.754 2.154 1.161.239.132.479.275.706.419.67.395 1.328.814 1.974 1.256.204.132.395.275.598.407.311.215.622.443.921.67.371.275.742.55 1.101.826 1.268 1.005 2.477 2.058 3.626 3.183.347.335.682.682 1.017 1.029l.144.144c.299.311.598.646.897.969.311.359.622.706.933 1.077.108.12.203.251.311.371.251.299.491.598.718.897.251.311.491.622.73.945.598.814 1.185 1.663 1.735 2.525.096.143.192.287.275.442z" fill="url(#SVGID_31_)"/><path d="m383.115 254.499c-1.196.191-2.405.383-3.614.562-.55.096-1.113.179-1.663.263-2.13.323-4.284.646-6.461.945-1.34.191-2.68.371-4.032.551-8.22 1.101-16.692 2.07-25.367 2.896-2.561.251-5.133.491-7.73.718-5.109.443-10.29.837-15.519 1.185.814-1.819 1.771-3.554 2.848-5.205.957-1.472 2.022-2.884 3.183-4.2.419-.479.838-.933 1.28-1.388 1.675-1.735 3.518-3.314 5.516-4.702 4.415-3.087 9.536-5.253 15.077-6.198 1.711-.287 3.458-.467 5.241-.514.383-.024.754-.024 1.137-.024 4.798 0 9.393.897 13.605 2.537 1.244.49 2.441 1.041 3.626 1.651h.012c2.417 1.256 4.69 2.764 6.76 4.499 1.903 1.579 3.638 3.338 5.181 5.253.309.382.621.777.92 1.171z" fill="url(#SVGID_32_)"/><path d="m391.168 253.123h-.012c-2.644.479-5.325.933-8.041 1.376-1.196.191-2.405.383-3.614.562-.55.096-1.113.179-1.663.263-.084-2.477-.359-4.894-.826-7.251-.778-3.925-2.058-7.67-3.781-11.152-.036-.072-.072-.144-.108-.215v-.012c.06.036.132.06.191.108.73.359 1.448.754 2.154 1.161.239.132.479.275.706.419.67.395 1.328.814 1.974 1.256.204.132.395.275.598.407.311.215.622.443.921.67.371.275.742.55 1.101.826 1.268 1.005 2.477 2.058 3.626 3.183.347.335.682.682 1.017 1.029l.144.144c.299.311.598.646.897.969.311.359.622.706.933 1.077.108.12.203.251.311.371.251.299.491.598.718.897.251.311.491.622.73.945.598.814 1.185 1.663 1.735 2.525.097.143.193.299.289.442z" fill="url(#SVGID_33_)"/><path d="m341.977 259.716c-2.561.251-5.133.491-7.73.718-5.109.443-10.29.837-15.519 1.185-2.716.191-5.444.359-8.184.514-13.198.778-26.647 1.256-40.18 1.472-2.596.036-5.193.072-7.789.084 5.696-15.4 19.922-26.683 36.938-28.083 1.197-.108 2.393-.156 3.614-.156.347 0 .694 0 1.041.012 7.706.179 14.897 2.369 21.083 6.078.179.096.347.203.526.311 2.046 1.256 3.973 2.692 5.779 4.272 1.472 1.28 2.848 2.656 4.128 4.128 1.029 1.173 1.987 2.393 2.884 3.673 1.279 1.832 2.428 3.758 3.409 5.792z" fill="url(#SVGID_34_)"/><path d="m334.247 260.434c-5.109.443-10.29.837-15.519 1.185-2.716.191-5.444.359-8.184.514-13.198.778-26.647 1.256-40.18 1.472 5.564-12.133 17.697-20.652 31.852-20.988.299-.024.61-.024.909-.024.275 0 .562 0 .838.024 1.292.012 2.573.108 3.829.287 2.369.299 4.655.826 6.856 1.591 1.759.574 3.47 1.304 5.097 2.166 2.25 1.161 4.355 2.561 6.294 4.164.55.443 1.089.909 1.603 1.4 1.376 1.256 2.644 2.632 3.793 4.104 1.042 1.293 1.975 2.669 2.812 4.105z" fill="url(#SVGID_35_)"/><path d="m207.542 262.565c31.223 1.536 63.692 1.536 94.915 0v-62.26h-94.915z" fill="url(#SVGID_36_)"/><path d="m207.542 226.308c31.223.642 63.692.642 94.915 0v-26.003h-94.915z" fill="url(#SVGID_37_)"/><path d="m222.673 200.305v62.867c26.493.875 53.574.683 79.785-.606v-62.26h-79.785z" fill="url(#SVGID_38_)"/><path d="m287.167 263.178v-62.873h-64.494v62.867c21.373.706 43.121.705 64.494.006z" fill="url(#SVGID_39_)"/><circle cx="227.283" cy="233.593" fill="url(#SVGID_40_)" r="9.907"/><circle cx="281.522" cy="245.466" fill="url(#SVGID_41_)" r="9.907"/><circle cx="252.425" cy="250.833" fill="url(#SVGID_42_)" r="7.332"/><path d="m231.513 88.949c0 19.763-59.097 35.784-78.86 35.784s-35.784-16.021-35.784-35.784 16.021-35.784 35.784-35.784 78.86 16.021 78.86 35.784z" fill="url(#SVGID_43_)"/><path d="m278.487 88.949c0 19.763 59.097 35.784 78.86 35.784s35.784-16.021 35.784-35.784-16.021-35.784-35.784-35.784-78.86 16.021-78.86 35.784z" fill="url(#SVGID_44_)"/><path d="m314.004 62.378c-18.695 6.549-35.518 16.027-35.518 26.571 0 19.763 59.097 35.784 78.86 35.784 5.55 0 10.805-1.264 15.493-3.519z" fill="url(#SVGID_45_)"/><ellipse cx="255" cy="55.811" fill="url(#SVGID_46_)" rx="47.618" ry="30.728"/><path d="m283.692 136.193c-19.221 1.856-38.163 1.856-57.385 0-19.543-1.887-34.458-18.32-34.458-37.954v-18.58c0-19.634 14.915-36.067 34.458-37.954 19.221-1.856 38.163-1.856 57.385 0 19.543 1.887 34.458 18.32 34.458 37.954v18.581c0 19.633-14.915 36.066-34.458 37.953z" fill="url(#SVGID_47_)"/><path d="m292.239 50.251c-19.221-1.856-38.163-1.856-57.385 0-19.543 1.887-34.458 18.32-34.458 37.954v18.581c0 8.313 2.682 16.046 7.248 22.351 5.324 3.855 11.697 6.384 18.663 7.056 19.221 1.856 38.163 1.856 57.385 0 19.543-1.887 34.458-18.32 34.458-37.954 0-6.194 0-12.387 0-18.581 0-8.313-2.681-16.046-7.248-22.351-5.324-3.855-11.697-6.383-18.663-7.056z" fill="url(#SVGID_48_)"/><path d="m291.429 134.62c5.704-1.785 10.806-4.86 14.986-8.875l-14.986-14.986z" fill="url(#SVGID_49_)"/><path d="m308.336 194.036h-106.672v-44.328c0-29.456 23.879-53.335 53.335-53.335 29.456 0 53.335 23.879 53.335 53.335v44.328z" fill="url(#SVGID_50_)"/><path d="m264.835 106.208c-29.457 0-53.336 23.879-53.336 53.335v34.493h96.836v-44.327c0-.122 0-.244-.001-.366-.159-23.638-19.496-42.974-43.133-43.133-.122-.002-.244-.002-.366-.002z" fill="url(#SVGID_51_)"/><path d="m300.494 204.659h-90.989c-6.534 0-11.831-5.297-11.831-11.831 0-6.534 5.297-11.831 11.831-11.831h90.989c6.534 0 11.831 5.297 11.831 11.831.001 6.534-5.296 11.831-11.831 11.831z" fill="url(#SVGID_52_)"/></svg>