<svg id="Capa_1" enable-background="new 0 0 510 510" height="512" viewBox="0 0 510 510" width="512" xmlns="http://www.w3.org/2000/svg" xmlns:xlink="http://www.w3.org/1999/xlink"><linearGradient id="lg1"><stop offset="0" stop-color="#537983"/><stop offset="1" stop-color="#384949"/></linearGradient><linearGradient id="SVGID_1_" gradientUnits="userSpaceOnUse" x1="265.215" x2="321.881" xlink:href="#lg1" y1="107.434" y2="175.434"/><linearGradient id="SVGID_00000145052334092636590210000012076835354258754960_" gradientUnits="userSpaceOnUse" x1="297.165" x2="297.165" y1="146.78" y2="170.789"><stop offset="0" stop-color="#554e56" stop-opacity="0"/><stop offset=".269" stop-color="#524b52" stop-opacity=".269"/><stop offset=".521" stop-color="#464147" stop-opacity=".521"/><stop offset=".7654" stop-color="#343034" stop-opacity=".765"/><stop offset="1" stop-color="#1a1a1a"/></linearGradient><linearGradient id="SVGID_00000151512787780768934120000013938581817142305419_" gradientUnits="userSpaceOnUse" x1="255" x2="255" xlink:href="#lg1" y1="150.78" y2="216.782"/><linearGradient id="lg2"><stop offset="0" stop-color="#eaf9fa"/><stop offset="1" stop-color="#b3dafe"/></linearGradient><linearGradient id="SVGID_00000077296876457910675070000013352920151078859913_" gradientUnits="userSpaceOnUse" x1="156.739" x2="156.739" xlink:href="#lg2" y1="192.28" y2="212.804"/><linearGradient id="SVGID_00000036949249543647035850000004008300512270924734_" gradientUnits="userSpaceOnUse" x1="353.261" x2="353.261" xlink:href="#lg2" y1="192.28" y2="212.804"/><linearGradient id="lg3"><stop offset="0" stop-color="#a274bf"/><stop offset=".1435" stop-color="#976fbb"/><stop offset=".3928" stop-color="#7b61b3"/><stop offset=".7158" stop-color="#4d4ba4"/><stop offset="1" stop-color="#1f3596"/></linearGradient><linearGradient id="SVGID_00000068677077865165628260000014589061463279918483_" gradientUnits="userSpaceOnUse" x1="181.2" x2="325.867" xlink:href="#lg3" y1="200.264" y2="526.264"/><linearGradient id="SVGID_00000121240934684815095860000011598845543459385233_" gradientUnits="userSpaceOnUse" x1="255" x2="255" xlink:href="#lg3" y1="306.78" y2="221.756"/><linearGradient id="lg4"><stop offset="0" stop-color="#1f3596" stop-opacity="0"/><stop offset=".2631" stop-color="#1f3191" stop-opacity=".263"/><stop offset=".5914" stop-color="#1d2781" stop-opacity=".591"/><stop offset=".9532" stop-color="#1b1768" stop-opacity=".953"/><stop offset="1" stop-color="#1b1464"/></linearGradient><linearGradient id="SVGID_00000103948823548016345170000001919439441566109317_" gradientUnits="userSpaceOnUse" x1="255" x2="255" xlink:href="#lg4" y1="418.446" y2="468.518"/><linearGradient id="SVGID_00000142161463592250097080000010713010202148727200_" gradientUnits="userSpaceOnUse" x1="262.276" x2="220.776" xlink:href="#lg4" y1="425.198" y2="396.698"/><linearGradient id="SVGID_00000031173248782848491740000002360403188850108306_" gradientUnits="userSpaceOnUse" x1="114.083" x2="69.372" xlink:href="#lg4" y1="366.03" y2="321.318"/><linearGradient id="SVGID_00000152256146593332354590000011578932097816606398_" gradientUnits="userSpaceOnUse" x1="161.582" x2="97.124" xlink:href="#lg4" y1="413.531" y2="349.074"/><linearGradient id="SVGID_00000129917820060079203720000010495580912981401787_" gradientUnits="userSpaceOnUse" x1="380.481" x2="498.481" xlink:href="#lg4" y1="343.059" y2="407.059"/><linearGradient id="SVGID_00000039812622334291054010000002130182764164647570_" gradientUnits="userSpaceOnUse" x1="469.739" x2="361.123" xlink:href="#lg3" y1="405.041" y2="296.424"/><linearGradient id="lg5"><stop offset="0" stop-color="#fef0ae"/><stop offset="1" stop-color="#fac600"/></linearGradient><linearGradient id="SVGID_00000060002633453339095390000004839632078995525262_" gradientUnits="userSpaceOnUse" x1="362.029" x2="382.675" xlink:href="#lg5" y1="338.252" y2="358.897"/><linearGradient id="lg6"><stop offset="0" stop-color="#fea613" stop-opacity="0"/><stop offset=".2032" stop-color="#fda215" stop-opacity=".203"/><stop offset=".4052" stop-color="#fb961b" stop-opacity=".405"/><stop offset=".6066" stop-color="#f68225" stop-opacity=".607"/><stop offset=".8066" stop-color="#f06633" stop-opacity=".807"/><stop offset="1" stop-color="#e94444"/></linearGradient><linearGradient id="SVGID_00000050640381012010345960000012298848345926344589_" gradientUnits="userSpaceOnUse" x1="370.702" x2="370.702" xlink:href="#lg6" y1="347.243" y2="367.518"/><linearGradient id="SVGID_00000045603917410561047260000001898336848033947538_" gradientUnits="userSpaceOnUse" x1="374.332" x2="386.334" xlink:href="#lg6" y1="350.555" y2="362.556"/><linearGradient id="lg7"><stop offset="0" stop-color="#fe646f"/><stop offset="1" stop-color="#c41926"/></linearGradient><linearGradient id="SVGID_00000181056901625881589260000011974738660272747690_" gradientUnits="userSpaceOnUse" x1="443.913" x2="464.559" xlink:href="#lg7" y1="338.252" y2="358.897"/><linearGradient id="lg8"><stop offset="0" stop-color="#a72b2b" stop-opacity="0"/><stop offset=".1996" stop-color="#a32b2a" stop-opacity=".2"/><stop offset=".3982" stop-color="#972926" stop-opacity=".398"/><stop offset=".5966" stop-color="#832820" stop-opacity=".597"/><stop offset=".7949" stop-color="#672517" stop-opacity=".795"/><stop offset=".9914" stop-color="#44210c" stop-opacity=".991"/><stop offset="1" stop-color="#42210b"/></linearGradient><linearGradient id="SVGID_00000005949510779343273110000016483402716561558145_" gradientUnits="userSpaceOnUse" x1="452.585" x2="452.585" xlink:href="#lg8" y1="347.243" y2="367.518"/><linearGradient id="SVGID_00000021089356852601855760000005943087672989656239_" gradientUnits="userSpaceOnUse" x1="456.216" x2="468.218" xlink:href="#lg8" y1="350.555" y2="362.556"/><linearGradient id="SVGID_00000147221876538274123690000014453145466702387890_" gradientUnits="userSpaceOnUse" x1="402.971" x2="423.617" y1="297.31" y2="317.955"><stop offset="0" stop-color="#bbec6c"/><stop offset="1" stop-color="#78a91f"/></linearGradient><linearGradient id="lg9"><stop offset="0" stop-color="#026841" stop-opacity="0"/><stop offset=".3243" stop-color="#046842" stop-opacity=".324"/><stop offset=".5509" stop-color="#0e6546" stop-opacity=".551"/><stop offset=".7476" stop-color="#1d614c" stop-opacity=".748"/><stop offset=".9263" stop-color="#335c54" stop-opacity=".926"/><stop offset="1" stop-color="#3e5959"/></linearGradient><linearGradient id="SVGID_00000065781201803212425910000010950294592176716163_" gradientUnits="userSpaceOnUse" x1="411.643" x2="411.643" xlink:href="#lg9" y1="306.302" y2="326.576"/><linearGradient id="SVGID_00000005245546347597246460000012021886511949282973_" gradientUnits="userSpaceOnUse" x1="415.274" x2="427.276" xlink:href="#lg9" y1="309.613" y2="321.615"/><linearGradient id="SVGID_00000055672703360980531710000017513365484123456142_" gradientUnits="userSpaceOnUse" x1="402.971" x2="423.617" y1="379.194" y2="399.839"><stop offset="0" stop-color="#c8effe"/><stop offset="1" stop-color="#62dbfb"/></linearGradient><linearGradient id="lg10"><stop offset="0" stop-color="#07b2cd" stop-opacity="0"/><stop offset=".4553" stop-color="#05a5ce" stop-opacity=".455"/><stop offset="1" stop-color="#0290cf"/></linearGradient><linearGradient id="SVGID_00000041290514401433158520000001313248301062738858_" gradientUnits="userSpaceOnUse" x1="411.643" x2="411.643" xlink:href="#lg10" y1="388.185" y2="408.46"/><linearGradient id="SVGID_00000151520674486757237250000010561221061521549986_" gradientUnits="userSpaceOnUse" x1="415.274" x2="427.276" xlink:href="#lg10" y1="391.497" y2="403.498"/><linearGradient id="SVGID_00000026126203778957363040000010700104306536488892_" gradientUnits="userSpaceOnUse" x1="396.459" x2="320.459" xlink:href="#lg4" y1="446.614" y2="412.364"/><linearGradient id="SVGID_00000116951459069388004670000010364060129557764778_" gradientUnits="userSpaceOnUse" x1="183.568" x2="216.883" xlink:href="#lg2" y1="392.572" y2="425.887"/><linearGradient id="lg11"><stop offset="0" stop-color="#b3dafe" stop-opacity="0"/><stop offset=".2438" stop-color="#acd5fa" stop-opacity=".244"/><stop offset=".589" stop-color="#9ac5f0" stop-opacity=".589"/><stop offset=".9932" stop-color="#7cacdf" stop-opacity=".993"/><stop offset="1" stop-color="#7bacdf"/></linearGradient><linearGradient id="SVGID_00000102528181795323603060000012108879816549307553_" gradientUnits="userSpaceOnUse" x1="197.562" x2="197.562" xlink:href="#lg11" y1="407.082" y2="439.797"/><linearGradient id="SVGID_00000113331460274839248780000013832647405377130398_" gradientUnits="userSpaceOnUse" x1="203.421" x2="222.787" xlink:href="#lg11" y1="412.425" y2="431.791"/><linearGradient id="SVGID_00000034810602273346454300000014921387703692847286_" gradientUnits="userSpaceOnUse" x1="298.445" x2="331.759" xlink:href="#lg2" y1="392.572" y2="425.887"/><linearGradient id="SVGID_00000110471316639342368620000011505983675835716241_" gradientUnits="userSpaceOnUse" x1="312.438" x2="312.438" xlink:href="#lg11" y1="407.082" y2="439.797"/><linearGradient id="SVGID_00000172437604337746756560000000713607912963394458_" gradientUnits="userSpaceOnUse" x1="318.297" x2="337.664" xlink:href="#lg11" y1="412.425" y2="431.791"/><linearGradient id="SVGID_00000035531799913958650280000011790200476648715449_" gradientUnits="userSpaceOnUse" x1="62.977" x2="107.522" xlink:href="#lg2" y1="314.961" y2="359.506"/><linearGradient id="SVGID_00000097483404717064216380000008641674356347415189_" gradientUnits="userSpaceOnUse" x1="108.688" x2="82.419" xlink:href="#lg2" y1="331.25" y2="304.981"/><linearGradient id="SVGID_00000163063097383896971890000015488382260023663804_" gradientUnits="userSpaceOnUse" x1="108.515" x2="85.387" xlink:href="#lg2" y1="389.922" y2="366.794"/><linearGradient id="SVGID_00000152951531125237602430000004937813968140713391_" gradientUnits="userSpaceOnUse" x1="139.313" x2="111.688" xlink:href="#lg2" y1="361.875" y2="334.249"/><linearGradient id="SVGID_00000165948695571493397870000000021505940246672298_" gradientUnits="userSpaceOnUse" x1="79.14" x2="54.129" xlink:href="#lg2" y1="360.547" y2="335.536"/><linearGradient id="SVGID_00000067923124734844008840000012482679839265572992_" gradientUnits="userSpaceOnUse" x1="94.94" x2="94.94" xlink:href="#lg11" y1="386.53" y2="404.037"/><linearGradient id="SVGID_00000152960256390413982920000017241842267226263220_" gradientTransform="matrix(0 -1 1 0 -202.427 395.991)" gradientUnits="userSpaceOnUse" x1="49.068" x2="49.068" xlink:href="#lg11" y1="336.973" y2="354.48"/><linearGradient id="SVGID_00000168075340771045479370000012845566487390217349_" gradientUnits="userSpaceOnUse" x1="222.667" x2="222.667" xlink:href="#lg5" y1="276.446" y2="288.344"/><linearGradient id="SVGID_00000158731630730629438090000015681378391756136096_" gradientUnits="userSpaceOnUse" x1="287.333" x2="287.333" xlink:href="#lg7" y1="276.446" y2="288.344"/><g><path d="m262.5 190.113h-15v-13.167c0-25.957 21.043-47 47-47h19.712c9.602 0 17.779-7.857 17.619-17.458-.156-9.332-7.796-16.875-17.165-16.875h-82c-32.54 0-59.5-24.347-63.621-55.781-.584-4.455 2.958-8.386 7.451-8.386 3.799 0 6.938 2.849 7.446 6.614 3.24 23.995 23.856 42.553 48.723 42.553h81.36c17.998 0 33.109 14.728 32.803 32.723-.298 17.481-14.611 31.61-32.162 31.61h-20.166c-17.673 0-32 14.327-32 32z" fill="url(#SVGID_1_)"/><path d="m314.212 129.946h-19.712c-25.957 0-47 21.043-47 47v13.167h15v-13.167c0-17.673 14.327-32 32-32h20.167c17.551 0 31.864-14.129 32.162-31.61.003-.187-.005-.371-.005-.556h-15.004c-.009 9.466-8.104 17.166-17.608 17.166z" fill="url(#SVGID_00000145052334092636590210000012076835354258754960_)"/><path d="m284.607 198.588c-2.021-14.953-10.027-25.582-19.268-25.582h-20.677c-9.242 0-17.247 10.629-19.268 25.582l-3.819 28.256h66.852z" fill="url(#SVGID_00000151512787780768934120000013938581817142305419_)"/><g><g><path d="m173.882 191.006h-34.285c-15.324 0-28.599 10.629-31.95 25.582l-6.333 28.256h110.852l-6.333-28.256c-3.352-14.953-16.627-25.582-31.951-25.582z" fill="url(#SVGID_00000077296876457910675070000013352920151078859913_)"/><path d="m402.354 216.588c-3.351-14.953-16.626-25.582-31.95-25.582h-34.285c-15.324 0-28.599 10.629-31.95 25.582l-6.333 28.256h110.852z" fill="url(#SVGID_00000036949249543647035850000004008300512270924734_)"/></g><path d="m507.1 345.489 1.784 12.292c9.245 63.693-40.147 120.772-104.507 120.772-31.396 0-61.163-13.969-81.226-38.118-35.428-42.642-100.873-42.642-136.3 0-20.063 24.149-49.831 38.118-81.226 38.118-64.36 0-113.753-57.08-104.507-120.772l1.782-12.292c11.052-76.139 76.323-132.62 153.26-132.62h197.679c76.938 0 142.209 56.481 153.261 132.62z" fill="url(#SVGID_00000068677077865165628260000014589061463279918483_)"/><path d="m312.896 305.515h-115.792c-6.961 0-12.604-5.643-12.604-12.604v-25.373c0-6.961 5.643-12.604 12.604-12.604h115.793c6.961 0 12.604 5.643 12.604 12.604v25.373c-.001 6.962-5.644 12.604-12.605 12.604z" fill="url(#SVGID_00000121240934684815095860000011598845543459385233_)"/><path d="m2.9 345.489-1.784 12.292c-9.245 63.693 40.147 120.772 104.507 120.772 31.396 0 61.163-13.969 81.226-38.118 35.428-42.642 100.873-42.642 136.301 0 20.063 24.149 49.831 38.118 81.226 38.118 64.36 0 113.753-57.08 104.507-120.772l-1.784-12.292c-1.99-13.71-5.747-26.778-11.004-38.998h-482.191c-5.258 12.22-9.014 25.288-11.004 38.998z" fill="url(#SVGID_00000103948823548016345170000001919439441566109317_)"/><path d="m249.81 408.61-27.146-27.146v33.062c8.732-3.41 17.904-5.379 27.146-5.916z" fill="url(#SVGID_00000142161463592250097080000010713010202148727200_)"/><path d="m113.667 292.447-73.167 73.166 105.083 105.083c15.842-6.477 30.067-16.781 41.267-30.261 12.41-14.937 28.504-24.634 45.7-29.106z" fill="url(#SVGID_00000031173248782848491740000002360403188850108306_)"/><path d="m232.55 411.33c-8.6 2.23-16.92 5.78-24.65 10.63-7.72 4.85-14.84 11.01-21.05 18.48-11.2 13.48-25.42 23.78-41.27 30.26l-68.33-68.34 73.17-73.16z" fill="url(#SVGID_00000152256146593332354590000011578932097816606398_)"/><path d="m507.1 345.489c-11.052-76.139-76.323-132.62-153.26-132.62h-99.173v195.589c25.329-.094 50.692 10.562 68.484 31.977 20.063 24.149 49.831 38.118 81.226 38.118 64.36 0 113.753-57.08 104.507-120.772z" fill="url(#SVGID_00000129917820060079203720000010495580912981401787_)"/><path d="m456.085 314.609c-1.277-.135-2.54-.195-3.786-.184-4.511.039-8.196-3.646-8.157-8.157.011-1.247-.049-2.51-.185-3.788-1.656-15.621-14.582-27.972-30.261-28.935-18.879-1.16-34.553 13.808-34.553 32.437v.108c.015 4.581-3.578 8.375-8.159 8.335-1.246-.011-2.509.049-3.786.185-15.622 1.657-27.973 14.585-28.934 30.265-1.158 18.878 13.81 34.549 32.437 34.549h.108c4.581-.015 8.374 3.579 8.335 8.159-.011 1.245.049 2.507.184 3.782 1.655 15.621 14.58 27.973 30.26 28.937 18.88 1.161 34.555-13.807 34.555-32.437 0-.035 0-.07 0-.105-.015-4.65 3.687-8.352 8.337-8.337h.105c18.63 0 33.598-15.675 32.437-34.555-.965-15.679-13.316-28.603-28.937-30.259z" fill="url(#SVGID_00000039812622334291054010000002130182764164647570_)"/><g><g><circle cx="370.701" cy="346.924" fill="url(#SVGID_00000060002633453339095390000004839632078995525262_)" r="22"/><path d="m348.702 346.924c0 12.15 9.85 22 22 22s22-9.85 22-22c0-2.631-.464-5.154-1.311-7.493h-41.378c-.848 2.339-1.311 4.861-1.311 7.493z" fill="url(#SVGID_00000050640381012010345960000012298848345926344589_)"/><path d="m355.145 362.48c8.591 8.591 22.521 8.592 31.113 0s8.591-22.521 0-31.113c-1.861-1.861-3.972-3.317-6.225-4.372l-29.259 29.259c1.054 2.254 2.51 4.365 4.371 6.226z" fill="url(#SVGID_00000045603917410561047260000001898336848033947538_)"/></g><g><circle cx="452.585" cy="346.924" fill="url(#SVGID_00000181056901625881589260000011974738660272747690_)" r="22"/><path d="m430.585 346.924c0 12.15 9.85 22 22 22s22-9.85 22-22c0-2.631-.464-5.154-1.311-7.493h-41.378c-.847 2.339-1.311 4.861-1.311 7.493z" fill="url(#SVGID_00000005949510779343273110000016483402716561558145_)"/><path d="m437.029 362.48c8.591 8.591 22.521 8.592 31.113 0s8.591-22.521 0-31.113c-1.861-1.861-3.972-3.317-6.225-4.372l-29.259 29.259c1.054 2.254 2.51 4.365 4.371 6.226z" fill="url(#SVGID_00000021089356852601855760000005943087672989656239_)"/></g><g><circle cx="411.643" cy="305.982" fill="url(#SVGID_00000147221876538274123690000014453145466702387890_)" r="22"/><path d="m389.643 305.982c0 12.15 9.85 22 22 22s22-9.85 22-22c0-2.631-.464-5.154-1.311-7.493h-41.378c-.847 2.339-1.311 4.861-1.311 7.493z" fill="url(#SVGID_00000065781201803212425910000010950294592176716163_)"/><path d="m396.087 321.538c8.591 8.591 22.521 8.592 31.113 0s8.591-22.521 0-31.113c-1.861-1.861-3.972-3.317-6.225-4.372l-29.259 29.259c1.054 2.254 2.51 4.365 4.371 6.226z" fill="url(#SVGID_00000005245546347597246460000012021886511949282973_)"/></g><g><circle cx="411.643" cy="387.866" fill="url(#SVGID_00000055672703360980531710000017513365484123456142_)" r="22"/><path d="m389.643 387.866c0 12.15 9.85 22 22 22s22-9.85 22-22c0-2.631-.464-5.154-1.311-7.493h-41.378c-.847 2.338-1.311 4.861-1.311 7.493z" fill="url(#SVGID_00000041290514401433158520000001313248301062738858_)"/><path d="m396.087 403.422c8.591 8.591 22.521 8.592 31.113 0s8.591-22.521 0-31.113c-1.861-1.861-3.972-3.317-6.225-4.372l-29.259 29.259c1.054 2.254 2.51 4.365 4.371 6.226z" fill="url(#SVGID_00000151520674486757237250000010561221061521549986_)"/></g></g><path d="m337.541 381.463h-25.541v47.734c3.963 3.343 7.701 7.086 11.15 11.238 20.063 24.149 49.831 38.118 81.226 38.118 9.299 0 18.283-1.198 26.825-3.429z" fill="url(#SVGID_00000026126203778957363040000010700104306536488892_)"/><g><g><circle cx="197.562" cy="406.566" fill="url(#SVGID_00000116951459069388004670000010364060129557764778_)" r="35.5"/><path d="m162.062 406.566c0 19.606 15.894 35.5 35.5 35.5s35.5-15.894 35.5-35.5c0-4.246-.748-8.317-2.115-12.091h-66.769c-1.368 3.774-2.116 7.844-2.116 12.091z" fill="url(#SVGID_00000102528181795323603060000012108879816549307553_)"/><path d="m172.459 431.668c13.864 13.864 36.341 13.864 50.205 0s13.864-36.341 0-50.205c-3.003-3.003-6.41-5.352-10.045-7.054l-47.213 47.213c1.701 3.636 4.051 7.043 7.053 10.046z" fill="url(#SVGID_00000113331460274839248780000013832647405377130398_)"/></g><g><circle cx="312.438" cy="406.566" fill="url(#SVGID_00000034810602273346454300000014921387703692847286_)" r="35.5"/><path d="m276.938 406.566c0 19.606 15.894 35.5 35.5 35.5s35.5-15.894 35.5-35.5c0-4.246-.748-8.317-2.115-12.091h-66.77c-1.367 3.774-2.115 7.844-2.115 12.091z" fill="url(#SVGID_00000110471316639342368620000011505983675835716241_)"/><path d="m287.336 431.668c13.864 13.864 36.341 13.864 50.205 0s13.864-36.341 0-50.205c-3.003-3.003-6.41-5.352-10.045-7.054l-47.213 47.213c1.701 3.636 4.051 7.043 7.053 10.046z" fill="url(#SVGID_00000172437604337746756560000000713607912963394458_)"/></g></g><g><path d="m139.861 324.322h-12.281c-5.544 0-10.039-4.494-10.039-10.039v-12.281c0-8.065-6.538-14.603-14.603-14.603h-15.997c-8.065 0-14.603 6.538-14.603 14.603v12.281c0 5.544-4.494 10.039-10.039 10.039h-12.281c-8.065 0-14.603 6.538-14.603 14.603v15.998c0 8.065 6.538 14.603 14.603 14.603h12.281c5.544 0 10.039 4.494 10.039 10.039v12.281c0 8.065 6.538 14.603 14.603 14.603h15.998c8.065 0 14.603-6.538 14.603-14.603v-12.281c0-5.544 4.494-10.039 10.039-10.039h12.281c8.065 0 14.603-6.538 14.603-14.603v-15.998c-.001-8.065-6.539-14.603-14.604-14.603z" fill="url(#SVGID_00000035531799913958650280000011790200476648715449_)"/><g><path d="m91.801 299.886-12.36 18.727c-1.65 2.5.143 5.832 3.138 5.832h24.72c2.996 0 4.788-3.332 3.138-5.832l-12.36-18.727c-1.485-2.252-4.79-2.252-6.276 0z" fill="url(#SVGID_00000097483404717064216380000008641674356347415189_)"/><path d="m91.801 393.962-12.36-18.727c-1.65-2.5.143-5.832 3.138-5.832h24.72c2.996 0 4.788 3.332 3.138 5.832l-12.36 18.727c-1.485 2.252-4.79 2.252-6.276 0z" fill="url(#SVGID_00000163063097383896971890000015488382260023663804_)"/></g><g><path d="m141.977 343.785-18.727-12.36c-2.5-1.65-5.832.143-5.832 3.138v24.72c0 2.996 3.332 4.788 5.832 3.138l18.727-12.36c2.252-1.485 2.252-4.789 0-6.276z" fill="url(#SVGID_00000152951531125237602430000004937813968140713391_)"/><path d="m47.902 343.785 18.727-12.36c2.5-1.65 5.832.143 5.832 3.138v24.72c0 2.996-3.332 4.788-5.832 3.138l-18.727-12.36c-2.252-1.485-2.252-4.789 0-6.276z" fill="url(#SVGID_00000165948695571493397870000000021505940246672298_)"/></g><path d="m35.415 351.53v3.393c0 8.065 6.538 14.603 14.603 14.603h12.281c5.544 0 10.039 4.495 10.039 10.039v12.281c0 8.065 6.538 14.603 14.603 14.603h15.998c8.065 0 14.603-6.538 14.603-14.603v-12.281c0-5.544 4.495-10.039 10.039-10.039h12.281c8.065 0 14.603-6.538 14.603-14.603v-3.393z" fill="url(#SVGID_00000067923124734844008840000012482679839265572992_)"/><path d="m99.545 406.448h3.393c8.065 0 14.603-6.538 14.603-14.603v-12.281c0-5.544 4.495-10.039 10.039-10.039h12.281c8.065 0 14.603-6.538 14.603-14.603v-15.998c0-8.065-6.538-14.603-14.603-14.603h-12.281c-5.544 0-10.039-4.495-10.039-10.039v-12.281c0-8.065-6.538-14.603-14.603-14.603h-3.393z" fill="url(#SVGID_00000152960256390413982920000017241842267226263220_)"/></g><g><path d="m235 291.446h-24.667c-4.05 0-7.333-3.283-7.333-7.333v-4.667c0-4.05 3.283-7.333 7.333-7.333h24.667c4.05 0 7.333 3.283 7.333 7.333v4.667c0 4.05-3.283 7.333-7.333 7.333z" fill="url(#SVGID_00000168075340771045479370000012845566487390217349_)"/><path d="m299.667 291.446h-24.667c-4.05 0-7.333-3.283-7.333-7.333v-4.667c0-4.05 3.283-7.333 7.333-7.333h24.667c4.05 0 7.333 3.283 7.333 7.333v4.667c0 4.05-3.283 7.333-7.333 7.333z" fill="url(#SVGID_00000158731630730629438090000015681378391756136096_)"/></g></g></g></svg>